<svg width="16" height="16" viewBox="0 0 16 16" fill="none" xmlns="http://www.w3.org/2000/svg">
<path d="M15.0874 11.5684V13.6934C15.0882 13.8907 15.0478 14.0859 14.9688 14.2667C14.8897 14.4474 14.7738 14.6097 14.6285 14.7431C14.4831 14.8764 14.3115 14.978 14.1246 15.0412C13.9377 15.1044 13.7397 15.1278 13.5432 15.1101C11.3636 14.8732 9.26987 14.1284 7.43033 12.9355C5.71888 11.848 4.26786 10.3969 3.18033 8.68549C1.98323 6.83759 1.23825 4.73369 1.00575 2.54424C0.988048 2.34836 1.01133 2.15094 1.0741 1.96455C1.13688 1.77816 1.23778 1.60689 1.37038 1.46163C1.50297 1.31638 1.66436 1.20032 1.84427 1.12086C2.02417 1.04139 2.21866 1.00025 2.41533 1.00007H4.54033C4.88409 0.996685 5.21735 1.11842 5.478 1.34257C5.73864 1.56673 5.90889 1.87801 5.957 2.2184C6.04669 2.89845 6.21303 3.56617 6.45283 4.20882C6.54813 4.46235 6.56876 4.73788 6.51227 5.00278C6.45577 5.26767 6.32453 5.51081 6.13408 5.7034L5.2345 6.60298C6.24285 8.37633 7.71115 9.84463 9.4845 10.853L10.3841 9.9534C10.5767 9.76296 10.8198 9.63171 11.0847 9.57522C11.3496 9.51872 11.6251 9.53935 11.8787 9.63465C12.5213 9.87446 13.189 10.0408 13.8691 10.1305C14.2132 10.179 14.5274 10.3523 14.752 10.6175C14.9767 10.8826 15.096 11.221 15.0874 11.5684Z" stroke="white" stroke-linecap="round" stroke-linejoin="round"/>
</svg>
