<svg width="14" height="13" viewBox="0 0 14 13" fill="none" xmlns="http://www.w3.org/2000/svg">
<path d="M12.25 0.8125C12.734 0.8125 13.125 1.17635 13.125 1.625C13.125 2.07365 12.734 2.4375 12.25 2.4375H2.1875C1.94578 2.4375 1.75 2.62031 1.75 2.84375C1.75 3.06719 1.94578 3.25 2.1875 3.25H12.25C13.2152 3.25 14 3.97871 14 4.875V10.5625C14 11.4588 13.2152 12.1875 12.25 12.1875H1.75C0.783399 12.1875 0 11.4588 0 10.5625V2.4375C0 1.53994 0.783399 0.8125 1.75 0.8125H12.25ZM11.375 8.53125C11.859 8.53125 12.25 8.16816 12.25 7.71875C12.25 7.26934 11.859 6.90625 11.375 6.90625C10.891 6.90625 10.5 7.26934 10.5 7.71875C10.5 8.16816 10.891 8.53125 11.375 8.53125Z" fill="black"/>
</svg>
