<svg width="32" height="36" viewBox="0 0 32 36" fill="none" xmlns="http://www.w3.org/2000/svg">
<path d="M8.4843 35.1263H3.99372C3.19974 35.1263 2.43827 34.7727 1.87684 34.1432C1.31541 33.5137 1 32.6599 1 31.7696V20.0212C1 19.1309 1.31541 18.2771 1.87684 17.6476C2.43827 17.0181 3.19974 16.6645 3.99372 16.6645H8.4843M18.9623 13.3078V6.59438C18.9623 5.259 18.4892 3.97832 17.6471 3.03406C16.8049 2.0898 15.6627 1.55933 14.4717 1.55933L8.4843 16.6645V35.1263H25.3689C26.0909 35.1355 26.7915 34.8518 27.3416 34.3275C27.8917 33.8031 28.2543 33.0736 28.3626 32.2732L30.4283 17.168C30.4934 16.6869 30.4644 16.1957 30.3434 15.7284C30.2224 15.2611 30.0123 14.8289 29.7275 14.4617C29.4427 14.0945 29.0902 13.8011 28.6943 13.6019C28.2983 13.4026 27.8685 13.3023 27.4345 13.3078H18.9623Z" stroke="#4C259F" stroke-width="1.2" stroke-linecap="round" stroke-linejoin="round"/>
</svg>
