<svg width="18" height="19" viewBox="0 0 18 19" fill="none" xmlns="http://www.w3.org/2000/svg">
<path d="M11.4 17.9H10.8C10.8 18.1273 10.9284 18.335 11.1317 18.4366C11.3349 18.5383 11.5782 18.5163 11.76 18.38L11.4 17.9ZM13.8 16.1L14.16 15.62C13.9466 15.46 13.6534 15.46 13.44 15.62L13.8 16.1ZM16.2 17.9L15.84 18.38C16.0218 18.5163 16.265 18.5383 16.4683 18.4366C16.6716 18.335 16.8 18.1273 16.8 17.9H16.2ZM13.8 13.7C12.1432 13.7 10.8 12.3569 10.8 10.7H9.6C9.6 13.0196 11.4804 14.9 13.8 14.9V13.7ZM16.8 10.7C16.8 12.3569 15.4568 13.7 13.8 13.7V14.9C16.1196 14.9 18 13.0196 18 10.7H16.8ZM13.8 7.7C15.4568 7.7 16.8 9.04315 16.8 10.7H18C18 8.3804 16.1196 6.5 13.8 6.5V7.7ZM13.8 6.5C11.4804 6.5 9.6 8.3804 9.6 10.7H10.8C10.8 9.04315 12.1432 7.7 13.8 7.7V6.5ZM10.8 13.1V17.9H12V13.1H10.8ZM11.76 18.38L14.16 16.58L13.44 15.62L11.04 17.42L11.76 18.38ZM13.44 16.58L15.84 18.38L16.56 17.42L14.16 15.62L13.44 16.58ZM16.8 17.9V13.1H15.6V17.9H16.8ZM18 6.5V2.3H16.8V6.5H18ZM16.2 0.5H1.8V1.7H16.2V0.5ZM0 2.3V16.7H1.2V2.3H0ZM1.8 18.5H9.6V17.3H1.8V18.5ZM0 16.7C0 17.6941 0.805888 18.5 1.8 18.5V17.3C1.46863 17.3 1.2 17.0313 1.2 16.7H0ZM1.8 0.5C0.805889 0.5 0 1.30589 0 2.3H1.2C1.2 1.96863 1.46863 1.7 1.8 1.7V0.5ZM18 2.3C18 1.30589 17.1941 0.5 16.2 0.5V1.7C16.5313 1.7 16.8 1.96863 16.8 2.3H18ZM3.6 6.5H9.6V5.3H3.6V6.5ZM3.6 10.1H7.2V8.9H3.6V10.1Z" fill="white"/>
</svg>
