<svg width="20" height="19" viewBox="0 0 20 19" fill="none" xmlns="http://www.w3.org/2000/svg">
<path d="M1 1.3999H6.4C7.35478 1.3999 8.27045 1.77919 8.94558 2.45432C9.62072 3.12945 10 4.04512 10 4.9999V17.5999C10 16.8838 9.71554 16.1971 9.20919 15.6907C8.70284 15.1844 8.01608 14.8999 7.3 14.8999H1V1.3999Z" stroke="white" stroke-width="1.1" stroke-linecap="round" stroke-linejoin="round"/>
<path d="M19 1.3999H13.6C12.6452 1.3999 11.7295 1.77919 11.0544 2.45432C10.3793 3.12945 10 4.04512 10 4.9999V17.5999C10 16.8838 10.2845 16.1971 10.7908 15.6907C11.2972 15.1844 11.9839 14.8999 12.7 14.8999H19V1.3999Z" stroke="white" stroke-width="1.1" stroke-linecap="round" stroke-linejoin="round"/>
</svg>
