<svg width="27" height="38" viewBox="0 0 27 38" fill="none" xmlns="http://www.w3.org/2000/svg">
<path d="M26.8889 13.9638C26.8909 11.694 26.3138 9.46095 25.2117 7.47431C24.1096 5.48768 22.5187 3.81266 20.5885 2.60655C18.6582 1.40045 16.4519 0.702828 14.1767 0.579207C11.9015 0.455585 9.63211 0.910018 7.5816 1.89983C5.5311 2.88964 3.76678 4.38236 2.45432 6.2378C1.14186 8.09324 0.324321 10.2505 0.0784834 12.5071C-0.167354 14.7636 0.166572 17.0454 1.04891 19.1381C1.93124 21.2308 3.33303 23.0658 5.12263 24.4708V36.9227C5.12265 37.0314 5.15057 37.1383 5.20372 37.2333C5.25687 37.3282 5.33349 37.408 5.42632 37.4652C5.51914 37.5223 5.62509 37.5549 5.73411 37.5598C5.84312 37.5647 5.95158 37.5417 6.04919 37.4931L13.4441 33.8093L20.8416 37.4932C20.9392 37.5418 21.0477 37.5648 21.1567 37.5599C21.2657 37.555 21.3717 37.5224 21.4645 37.4653C21.5573 37.4081 21.634 37.3282 21.6871 37.2333C21.7402 37.1383 21.7681 37.0314 21.7681 36.9227V24.4694C23.3638 23.2181 24.6537 21.6226 25.5407 19.8029C26.4276 17.9832 26.8886 15.9867 26.8889 13.9638ZM20.4877 35.8909L13.7305 32.5258C13.6416 32.4815 13.5435 32.4585 13.4441 32.4585C13.3447 32.4585 13.2467 32.4816 13.1578 32.5258L6.40306 35.8907V25.3667C8.51988 26.6678 10.9582 27.3567 13.4456 27.3565C15.9329 27.3563 18.3711 26.667 20.4877 25.3656V35.8909ZM13.4445 26.081C11.0386 26.081 8.68684 25.3704 6.68648 24.0389C4.68612 22.7074 3.12702 20.815 2.20635 18.6009C1.28569 16.3867 1.0448 13.9504 1.51415 11.5999C1.9835 9.24935 3.14202 7.09027 4.84319 5.39565C6.54436 3.70103 8.71178 2.54698 11.0714 2.07943C13.431 1.61189 15.8767 1.85185 18.0994 2.76897C20.3221 3.68609 22.2219 5.23919 23.5585 7.23185C24.8951 9.22451 25.6085 11.5673 25.6085 13.9638C25.6048 17.1764 24.3221 20.2563 22.0417 22.5279C19.7613 24.7996 16.6694 26.0774 13.4445 26.081ZM13.4445 5.67309C11.7984 5.67309 10.1892 6.15933 8.82058 7.07033C7.45191 7.98132 6.38516 9.27616 5.75523 10.7911C5.1253 12.306 4.96048 13.973 5.28162 15.5812C5.60275 17.1895 6.39542 18.6668 7.55937 19.8262C8.72333 20.9857 10.2063 21.7753 11.8208 22.0952C13.4352 22.4151 15.1086 22.2509 16.6294 21.6234C18.1502 20.9959 19.4501 19.9333 20.3646 18.5699C21.2791 17.2065 21.7672 15.6036 21.7672 13.9638C21.7647 11.7657 20.887 9.65841 19.3268 8.10414C17.7665 6.54986 15.651 5.67558 13.4445 5.67309ZM13.4445 20.979C12.0516 20.979 10.69 20.5676 9.53194 19.7968C8.37384 19.0259 7.4712 17.9303 6.93819 16.6484C6.40517 15.3666 6.26571 13.956 6.53744 12.5952C6.80917 11.2344 7.47988 9.98439 8.46477 9.0033C9.44966 8.0222 10.7045 7.35407 12.0706 7.08338C13.4366 6.8127 14.8526 6.95162 16.1394 7.48259C17.4263 8.01355 18.5261 8.91271 19.2999 10.0664C20.0738 11.22 20.4868 12.5763 20.4868 13.9638C20.4847 15.8237 19.742 17.6068 18.4218 18.922C17.1016 20.2372 15.3115 20.9769 13.4445 20.979Z" fill="#4C259F"/>
</svg>
