<svg width="19" height="19" viewBox="0 0 19 19" fill="none" xmlns="http://www.w3.org/2000/svg">
<path d="M15.6229 4.44727C16.0573 3.86279 16.8834 3.74118 17.4679 4.17571C18.0525 4.61024 18.174 5.43626 17.7395 6.02079C17.6699 6.11449 17.5881 6.19853 17.4963 6.27069L12.5471 11.3557L12.0773 11.8207L14.7855 9.01284C15.2201 8.42837 16.0461 8.30676 16.6306 8.74129C17.2151 9.17582 17.3367 10.0018 16.9022 10.5864C16.8325 10.6801 16.7508 10.7641 16.6589 10.8363L13.2727 14.3155L10.5954 16.9649C8.2887 19.0473 4.9491 18.517 2.8672 16.2108C1.67188 14.8753 1.00757 13.148 1 11.3557C1.04562 9.76907 1.38276 5.64617 1.38276 5.64617C1.56639 4.68992 2.7469 4.10865 2.82815 4.6237L4.2079 8.45985L5.64409 7.04421L4.2079 8.45985L5.64409 7.04421L11.4039 1.26349C11.8384 0.679016 12.6645 0.557402 13.249 0.991933C13.8335 1.42646 13.9551 2.25248 13.5206 2.83701C13.4509 2.93072 13.3692 3.01475 13.2774 3.08691L11.454 4.96032L8.94623 7.55741L14.4579 1.86058C14.8924 1.2761 15.7185 1.15449 16.303 1.58902C16.8875 2.02355 17.0091 2.84957 16.5745 3.4341C16.5049 3.5278 16.4231 3.61184 16.3313 3.684L11.311 8.79142" stroke="white" stroke-linecap="round" stroke-linejoin="round"/>
</svg>
