<svg width="20" height="19" viewBox="0 0 20 19" fill="none" xmlns="http://www.w3.org/2000/svg">
<path d="M18.5641 3.83279C18.4673 3.32628 18.27 2.86219 17.9922 2.4874C17.7145 2.11261 17.3661 1.8404 16.9822 1.69825C15.5798 1.25 9.96983 1.25 9.96983 1.25C9.96983 1.25 4.3599 1.25 2.95742 1.74094C2.57357 1.88309 2.22517 2.1553 1.94742 2.53009C1.66968 2.90488 1.47241 3.36897 1.37555 3.87549C1.11887 5.73846 0.99332 7.62834 1.00047 9.52135C0.991317 11.4286 1.11688 13.3329 1.37555 15.2099C1.48233 15.7007 1.68402 16.1471 1.96112 16.5061C2.23822 16.865 2.58137 17.1244 2.95742 17.2591C4.3599 17.75 9.96983 17.75 9.96983 17.75C9.96983 17.75 15.5798 17.75 16.9822 17.2591C17.3661 17.1169 17.7145 16.8447 17.9922 16.4699C18.27 16.0951 18.4673 15.631 18.5641 15.1245C18.8188 13.2756 18.9444 11.4001 18.9392 9.52135C18.9484 7.61409 18.8228 5.7098 18.5641 3.83279V3.83279Z" stroke="#FCF9F9" stroke-width="1.1" stroke-linecap="round" stroke-linejoin="round"/>
<path d="M8.13525 13.0114L12.8238 9.52147L8.13525 6.03149V13.0114Z" stroke="#FCF9F9" stroke-width="1.1" stroke-linecap="round" stroke-linejoin="round"/>
</svg>
