<svg width="20" height="19" viewBox="0 0 20 19" fill="none" xmlns="http://www.w3.org/2000/svg">
<path d="M10 18.5C14.9706 18.5 19 14.4706 19 9.5C19 4.52944 14.9706 0.5 10 0.5C5.02944 0.5 1 4.52944 1 9.5C1 14.4706 5.02944 18.5 10 18.5Z" stroke="white" stroke-miterlimit="10" stroke-linecap="round" stroke-linejoin="round"/>
<path d="M9.99996 0.5V18.5C7.24841 18.5 5.01782 14.4706 5.01782 9.5C5.01782 4.52943 7.24841 0.5 9.99996 0.5ZM9.99996 0.5C12.7515 0.5 14.9821 4.52943 14.9821 9.5C14.9821 14.4706 12.7515 18.5 9.99996 18.5" stroke="white" stroke-miterlimit="10" stroke-linecap="round" stroke-linejoin="round"/>
<path d="M19 9.5H1" stroke="white" stroke-miterlimit="10" stroke-linecap="round" stroke-linejoin="round"/>
<path d="M17.7143 5H2.28577" stroke="white" stroke-miterlimit="10" stroke-linecap="round" stroke-linejoin="round"/>
<path d="M17.7143 14H2.28577" stroke="white" stroke-miterlimit="10" stroke-linecap="round" stroke-linejoin="round"/>
</svg>
