<svg width="36" height="42" viewBox="0 0 36 42" fill="none" xmlns="http://www.w3.org/2000/svg">
<path d="M18 41.3145C17.7637 41.3145 17.5725 41.1001 17.5725 40.8352V30.1833C17.5725 29.9184 17.7637 29.704 18 29.704C18.2363 29.704 18.4275 29.9184 18.4275 30.1833V40.8352C18.4275 41.1001 18.2363 41.3145 18 41.3145ZM16.0786 35.7569C16.0228 35.7569 15.9658 35.7436 15.9112 35.7183C14.7249 35.1498 13.896 33.6771 13.896 32.1339C13.896 30.5095 14.5111 29.2699 15.8328 28.23C16.0276 28.0796 16.2924 28.1315 16.4278 28.3472C16.5631 28.5642 16.5168 28.8638 16.3233 29.0156C15.2213 29.8811 14.7498 30.8158 14.7498 32.1339C14.7498 33.3043 15.3649 34.4161 16.2449 34.8369C16.4622 34.9407 16.5631 35.2217 16.4705 35.4666C16.4028 35.6477 16.2449 35.7569 16.0786 35.7569ZM19.9202 35.7569C19.7919 35.7569 19.6637 35.6903 19.5794 35.5665C19.4369 35.3561 19.4737 35.0539 19.6613 34.8941C20.7586 33.9621 21.2466 33.291 21.2466 31.7851C21.2466 29.921 19.6091 28.6614 17.8753 27.33C15.9254 25.832 13.9103 24.2835 13.9103 21.6419C13.9103 20.1692 14.6809 18.8258 15.8744 18.22C16.0893 18.1134 16.3434 18.2186 16.4408 18.4596C16.5382 18.7006 16.442 18.9856 16.2271 19.0947C15.3388 19.5448 14.7653 20.5447 14.7653 21.6432C14.7653 23.7789 16.5109 25.121 18.3586 26.5417C20.1993 27.9558 22.1028 29.4164 22.1028 31.7864C22.1028 33.6665 21.4271 34.5972 20.1791 35.6597C20.1019 35.7236 20.0104 35.7569 19.9202 35.7569ZM19.9202 25.9825C19.7919 25.9825 19.6637 25.9159 19.5794 25.7921C19.4369 25.5804 19.4737 25.2795 19.6613 25.1197C20.7586 24.189 21.2466 23.5193 21.2466 22.012C21.2466 20.3477 19.9404 19.1653 18.4263 17.9843V23.5286C18.4263 23.7935 18.2351 24.0079 17.9988 24.0079C17.7625 24.0079 17.5713 23.7935 17.5713 23.5286V17.3252C15.7212 15.8978 13.9091 14.376 13.9091 11.8701C13.9091 10.3962 14.6798 9.0527 15.8732 8.4482C16.0881 8.34169 16.3423 8.44687 16.4396 8.68787C16.537 8.92887 16.4408 9.21381 16.2259 9.32299C15.3376 9.77303 14.7641 10.773 14.7641 11.8714C14.7641 13.7009 16.0442 14.9472 17.5713 16.1588V6.66002C16.2283 6.42835 15.1963 5.12349 15.1963 3.55368C15.1963 1.82142 16.4539 0.411377 17.9988 0.411377C19.5449 0.411377 20.8013 1.82142 20.8013 3.55368C20.8013 5.12349 19.7694 6.42835 18.4263 6.66002V16.8192C20.2456 18.216 22.1016 19.6713 22.1016 22.012C22.1016 23.8934 21.4259 24.8254 20.1779 25.8853C20.1019 25.9492 20.0104 25.9825 19.9202 25.9825ZM18 5.73598C18.0119 5.73598 18.0238 5.73598 18.0356 5.73731C19.0925 5.716 19.9475 4.74535 19.9475 3.55368C19.9475 2.35002 19.0747 1.37004 18 1.37004C16.9253 1.37004 16.0525 2.35002 16.0525 3.55368C16.0525 4.74535 16.9075 5.716 17.9644 5.73731C17.9763 5.73598 17.9881 5.73598 18 5.73598ZM21.5625 17.3478C21.4022 17.3478 21.2478 17.2466 21.1766 17.0722C21.0756 16.8325 21.1671 16.5476 21.3808 16.4344C22.617 15.7807 23.6228 13.9312 23.6228 12.3095C23.6228 9.78768 24.8804 8.40027 27.1604 8.40027H34.625C34.8613 8.40027 35.0525 8.61464 35.0525 8.87961C35.0525 9.14457 34.8613 9.35894 34.625 9.35894H27.1604C25.7615 9.35894 24.9338 9.90618 24.6215 11.0632H32.25C32.4863 11.0632 32.6775 11.2776 32.6775 11.5426C32.6775 11.8075 32.4863 12.0219 32.25 12.0219H24.4838C24.479 12.1151 24.4778 12.211 24.4778 12.3095C24.4778 12.7542 24.4101 13.2389 24.2831 13.7275H29.8501C30.0864 13.7275 30.2776 13.9419 30.2776 14.2069C30.2776 14.4718 30.0864 14.6862 29.8501 14.6862H23.9565C23.491 15.7767 22.7334 16.7793 21.7454 17.3012C21.686 17.3332 21.6243 17.3478 21.5625 17.3478ZM14.4375 17.3478C14.3758 17.3478 14.314 17.3332 14.2558 17.3026C13.2678 16.7806 12.5102 15.778 12.0459 14.6875H6.12501C5.8887 14.6875 5.69751 14.4732 5.69751 14.2082C5.69751 13.9432 5.8887 13.7289 6.12501 13.7289H11.7181C11.5911 13.2389 11.5246 12.7555 11.5246 12.3108C11.5246 12.2123 11.5222 12.1164 11.5186 12.0232H3.75001C3.5137 12.0219 3.32251 11.8075 3.32251 11.5426C3.32251 11.2776 3.5137 11.0632 3.75001 11.0632H11.3809C11.0686 9.90618 10.2409 9.35894 8.84201 9.35894H1.37501C1.1387 9.35894 0.94751 9.14457 0.94751 8.87961C0.94751 8.61464 1.1387 8.40027 1.37501 8.40027H8.84201C10.8418 8.40027 12.053 9.46679 12.3226 11.4267C12.3285 11.4574 12.3333 11.488 12.3344 11.5213C12.3641 11.7703 12.3796 12.0326 12.3796 12.3095C12.3796 13.9312 13.3842 15.782 14.6192 16.4344C14.8329 16.5476 14.9244 16.8325 14.8234 17.0722C14.751 17.2466 14.5978 17.3478 14.4375 17.3478ZM19.9202 16.0177C19.786 16.0177 19.653 15.9471 19.5699 15.814C19.4345 15.5969 19.482 15.2987 19.6744 15.1469C20.7776 14.2801 21.2466 13.3467 21.2466 12.0286C21.2466 10.8582 20.6315 9.74773 19.7516 9.32565C19.5343 9.2218 19.4333 8.93952 19.5271 8.69719C19.6198 8.45353 19.8727 8.34035 20.0888 8.44421C21.2739 9.01142 22.1028 10.4854 22.1028 12.0286C22.1028 13.653 21.4865 14.8926 20.166 15.9325C20.0912 15.9897 20.0045 16.0177 19.9202 16.0177Z" fill="#4C259F"/>
</svg>
