<svg width="18" height="18" viewBox="0 0 18 18" fill="none" xmlns="http://www.w3.org/2000/svg">
<g clip-path="url(#clip0_122_7311)">
<path d="M14.1622 13.6775C14.2534 13.5945 18 10.6096 18 10.6096L17.3616 10.3605C16.9968 10.1979 17.0916 9.97871 17.1792 9.78281C17.2667 9.53047 17.9124 7.54824 17.9124 7.54824C17.9124 7.54824 16.1723 7.88027 15.8075 7.96328C15.5339 8.04297 15.4427 7.88027 15.3515 7.71426C15.2603 7.54824 14.8043 6.63848 14.8043 6.63848C14.8043 6.63848 12.8854 8.62734 12.7942 8.70703C12.4294 8.95605 12.0609 8.70703 12.1521 8.375C12.1521 8.04297 13.159 4.07188 13.159 4.07188C13.159 4.07188 12.0609 4.64961 11.6961 4.81563C11.4225 4.98164 11.2365 4.98164 11.0541 4.64961C10.868 4.40059 9.49635 2 9.49635 2C9.49635 2 8.12833 4.40059 7.94592 4.64961C7.76352 4.98164 7.58112 4.98164 7.30386 4.81563C6.93906 4.64961 5.84099 4.07188 5.84099 4.07188C5.84099 4.07188 6.84785 8.04297 6.84785 8.375C6.93906 8.70703 6.57425 8.95605 6.20579 8.70703C6.11459 8.62402 4.19571 6.63848 4.19571 6.63848C4.19571 6.63848 3.7397 7.54492 3.6485 7.71094C3.5573 7.87695 3.46609 8.03965 3.19249 7.95996C2.82403 7.87695 1.08755 7.54492 1.08755 7.54492C1.08755 7.54492 1.72961 9.52715 1.82082 9.77949C1.90837 9.97871 2.00322 10.1945 1.63841 10.3572L1 10.6096C1 10.6096 4.74292 13.5945 4.83777 13.6775C5.02382 13.8436 5.20258 13.9266 5.02382 14.4246C4.83777 14.9227 4.65536 15.59 4.65536 15.59C4.65536 15.59 8.12833 14.9227 8.49678 14.8396C8.81416 14.8098 9.16438 14.9227 9.16438 15.2547C9.16438 15.5867 8.95279 19 8.95279 19H10.0472C10.0472 19 9.83562 15.59 9.83562 15.2547C9.83562 14.9193 10.1822 14.8098 10.5069 14.8396C10.8717 14.9227 14.3446 15.59 14.3446 15.59C14.3446 15.59 14.1622 14.9227 13.9798 14.4246C13.7974 13.9266 13.9798 13.8436 14.1622 13.6775Z" fill="black"/>
</g>
<defs>
<clipPath id="clip0_122_7311">
<rect width="18" height="18" fill="white"/>
</clipPath>
</defs>
</svg>
