<svg width="30" height="31" viewBox="0 0 30 31" fill="none" xmlns="http://www.w3.org/2000/svg">
<path d="M15 30.25C23.2843 30.25 30 23.5343 30 15.25C30 6.96573 23.2843 0.25 15 0.25C6.71573 0.25 0 6.96573 0 15.25C0 23.5343 6.71573 30.25 15 30.25Z" fill="#3C5A99"/>
<path d="M16.166 22.75V15.918H18.4688L18.8145 13.2432H16.166V11.541C16.166 10.7676 16.3799 10.2432 17.4873 10.2432H18.8906V7.8584C18.6475 7.82617 17.8096 7.75293 16.834 7.75293C14.7979 7.75293 13.4033 8.99512 13.4033 11.2773V13.2461H11.1094V15.9209H13.4033V22.75H16.166Z" fill="#F5F5F5"/>
</svg>
