<svg width="77" height="80" viewBox="0 0 77 80" fill="none" xmlns="http://www.w3.org/2000/svg">
<rect x="0.333496" y="0.5" width="76" height="79" rx="20" fill="#2563EB"/>
<path d="M30.4786 58.5158H24.9915C24.0214 58.5158 23.0909 58.0836 22.4049 57.3144C21.7189 56.5452 21.3335 55.502 21.3335 54.4142V40.0587C21.3335 38.9709 21.7189 37.9276 22.4049 37.1584C23.0909 36.3892 24.0214 35.9571 24.9915 35.9571H30.4786M43.2818 31.8555V23.6524C43.2818 22.0207 42.7037 20.4558 41.6746 19.302C40.6456 18.1482 39.25 17.5 37.7947 17.5L30.4786 35.9571V58.5158H51.11C51.9922 58.5269 52.8482 58.1803 53.5205 57.5396C54.1927 56.8989 54.6357 56.0075 54.768 55.0294L57.2921 36.5723C57.3716 35.9845 57.3363 35.3843 57.1884 34.8133C57.0406 34.2423 56.7838 33.7141 56.4358 33.2655C56.0879 32.8168 55.6571 32.4583 55.1733 32.2149C54.6895 31.9714 54.1643 31.8488 53.634 31.8555H43.2818Z" stroke="white" stroke-width="1.2" stroke-linecap="round" stroke-linejoin="round"/>
</svg>
