<svg width="76" height="79" viewBox="0 0 76 79" fill="none" xmlns="http://www.w3.org/2000/svg">
<rect width="76" height="79" rx="20" fill="#2563EB"/>
<path d="M54 33.904C54.0024 31.2028 53.3155 28.5452 52.004 26.181C50.6924 23.8167 48.7991 21.8233 46.502 20.3879C44.2048 18.9526 41.5791 18.1223 38.8714 17.9752C36.1638 17.8281 33.463 18.3689 31.0227 19.5469C28.5825 20.7248 26.4828 22.5013 24.9208 24.7094C23.3589 26.9175 22.386 29.4849 22.0934 32.1704C21.8008 34.8558 22.1982 37.5713 23.2483 40.0618C24.2983 42.5523 25.9666 44.7361 28.0964 46.4081V61.227C28.0964 61.3563 28.1296 61.4836 28.1928 61.5965C28.2561 61.7095 28.3473 61.8045 28.4578 61.8725C28.5682 61.9405 28.6943 61.9793 28.8241 61.9851C28.9538 61.9909 29.0829 61.9636 29.199 61.9058L37.9996 57.5217L46.8032 61.9059C46.9194 61.9638 47.0485 61.9911 47.1782 61.9852C47.3079 61.9794 47.434 61.9407 47.5445 61.8726C47.655 61.8046 47.7462 61.7096 47.8094 61.5966C47.8727 61.4836 47.9059 61.3564 47.9059 61.227V46.4065C49.8048 44.9174 51.3399 43.0186 52.3955 40.853C53.4511 38.6873 53.9997 36.3114 54 33.904ZM46.3821 59.999L38.3404 55.9942C38.2346 55.9416 38.1179 55.9142 37.9996 55.9142C37.8813 55.9142 37.7647 55.9416 37.6588 55.9943L29.6202 59.9988V47.4744C32.1393 49.0228 35.0412 49.8426 38.0013 49.8424C40.9614 49.8422 43.8631 49.0218 46.3821 47.473V59.999ZM38 48.3245C35.1369 48.3245 32.3381 47.4787 29.9575 45.8942C27.5769 44.3096 25.7214 42.0575 24.6257 39.4225C23.5301 36.7875 23.2434 33.888 23.802 31.0907C24.3605 28.2934 25.7393 25.7239 27.7638 23.7072C29.7883 21.6905 32.3677 20.317 35.1758 19.7606C37.9839 19.2042 40.8946 19.4898 43.5398 20.5812C46.185 21.6727 48.4458 23.521 50.0365 25.8924C51.6272 28.2639 52.4762 31.0519 52.4762 33.904C52.4718 37.7272 50.9453 41.3926 48.2314 44.096C45.5175 46.7994 41.838 48.3201 38 48.3245ZM38 24.0374C36.041 24.0374 34.126 24.616 32.4972 25.7002C30.8684 26.7844 29.5989 28.3253 28.8492 30.1282C28.0995 31.9311 27.9034 33.9149 28.2856 35.8289C28.6677 37.7428 29.6111 39.5009 30.9963 40.8808C32.3815 42.2606 34.1463 43.2003 36.0677 43.581C37.989 43.9618 39.9805 43.7664 41.7904 43.0196C43.6002 42.2728 45.1472 41.0082 46.2355 39.3856C47.3239 37.763 47.9048 35.8554 47.9048 33.904C47.9018 31.2881 46.8573 28.7802 45.0004 26.9305C43.1436 25.0808 40.626 24.0403 38 24.0374ZM38 42.2527C36.3424 42.2527 34.722 41.763 33.3438 40.8457C31.9655 39.9283 30.8913 38.6244 30.257 37.0989C29.6227 35.5734 29.4567 33.8947 29.7801 32.2752C30.1035 30.6558 30.9017 29.1682 32.0738 28.0006C33.2459 26.833 34.7392 26.0379 36.365 25.7157C37.9907 25.3936 39.6758 25.5589 41.2072 26.1908C42.7387 26.8227 44.0476 27.8928 44.9685 29.2657C45.8894 30.6386 46.3809 32.2528 46.3809 33.904C46.3784 36.1174 45.4946 38.2395 43.9235 39.8046C42.3523 41.3698 40.222 42.2502 38 42.2527Z" fill="white"/>
</svg>
