<svg width="77" height="80" viewBox="0 0 77 80" fill="none" xmlns="http://www.w3.org/2000/svg">
<rect x="0.666504" y="0.951569" width="76" height="79" rx="20" fill="#2563EB"/>
<path d="M39 63.9516C38.6951 63.9516 38.4485 63.7 38.4485 63.3891V50.8891C38.4485 50.5781 38.6951 50.3266 39 50.3266C39.3049 50.3266 39.5515 50.5781 39.5515 50.8891V63.3891C39.5515 63.7 39.3049 63.9516 39 63.9516ZM36.5212 57.4297C36.4492 57.4297 36.3756 57.4141 36.3052 57.3844C34.7747 56.7172 33.7053 54.9891 33.7053 53.1781C33.7053 51.2719 34.4989 49.8172 36.204 48.5969C36.4553 48.4203 36.7969 48.4813 36.9716 48.7344C37.1462 48.9891 37.0865 49.3406 36.8368 49.5188C35.415 50.5344 34.8068 51.6313 34.8068 53.1781C34.8068 54.5516 35.6004 55.8563 36.7357 56.35C37.016 56.4719 37.1462 56.8016 37.0267 57.0891C36.9394 57.3016 36.7357 57.4297 36.5212 57.4297ZM41.4773 57.4297C41.3118 57.4297 41.1464 57.3516 41.0376 57.2063C40.8538 56.9594 40.9013 56.6047 41.1433 56.4172C42.5589 55.3234 43.1886 54.5359 43.1886 52.7688C43.1886 50.5813 41.0759 49.1031 38.8391 47.5406C36.3235 45.7828 33.7237 43.9656 33.7237 40.8656C33.7237 39.1375 34.718 37.5609 36.2577 36.85C36.535 36.725 36.8628 36.8484 36.9884 37.1313C37.1141 37.4141 36.99 37.7484 36.7127 37.8766C35.5667 38.4047 34.8267 39.5781 34.8267 40.8672C34.8267 43.3734 37.0788 44.9484 39.4627 46.6156C41.8373 48.275 44.2932 49.9891 44.2932 52.7703C44.2932 54.9766 43.4214 56.0688 41.8113 57.3156C41.7117 57.3906 41.5937 57.4297 41.4773 57.4297ZM41.4773 45.9594C41.3118 45.9594 41.1464 45.8813 41.0376 45.7359C40.8538 45.4875 40.9013 45.1344 41.1433 44.9469C42.5589 43.8547 43.1886 43.0688 43.1886 41.3C43.1886 39.3469 41.5033 37.9594 39.55 36.5734V43.0797C39.55 43.3906 39.3033 43.6422 38.9985 43.6422C38.6936 43.6422 38.4469 43.3906 38.4469 43.0797V35.8C36.06 34.125 33.7221 32.3391 33.7221 29.3984C33.7221 27.6688 34.7164 26.0922 36.2561 25.3828C36.5334 25.2578 36.8613 25.3813 36.9869 25.6641C37.1125 25.9469 36.9884 26.2813 36.7111 26.4094C35.5652 26.9375 34.8252 28.1109 34.8252 29.4C34.8252 31.5469 36.4767 33.0094 38.4469 34.4313V23.2844C36.7142 23.0125 35.3829 21.4813 35.3829 19.6391C35.3829 17.6063 37.0053 15.9516 38.9985 15.9516C40.9932 15.9516 42.6141 17.6063 42.6141 19.6391C42.6141 21.4813 41.2827 23.0125 39.55 23.2844V35.2063C41.8971 36.8453 44.2916 38.5531 44.2916 41.3C44.2916 43.5078 43.4199 44.6016 41.8097 45.8453C41.7117 45.9203 41.5937 45.9594 41.4773 45.9594ZM39 22.2C39.0153 22.2 39.0306 22.2 39.046 22.2016C40.4095 22.1766 41.5125 21.0375 41.5125 19.6391C41.5125 18.2266 40.3865 17.0766 39 17.0766C37.6135 17.0766 36.4875 18.2266 36.4875 19.6391C36.4875 21.0375 37.5905 22.1766 38.954 22.2016C38.9694 22.2 38.9847 22.2 39 22.2ZM43.5961 35.8266C43.3893 35.8266 43.1901 35.7078 43.0982 35.5031C42.968 35.2219 43.0859 34.8875 43.3617 34.7547C44.9565 33.9875 46.2542 31.8172 46.2542 29.9141C46.2542 26.9547 47.8766 25.3266 50.8181 25.3266H60.4485C60.7533 25.3266 61 25.5781 61 25.8891C61 26.2 60.7533 26.4516 60.4485 26.4516H50.8181C49.0134 26.4516 47.9455 27.0938 47.5426 28.4516H57.3844C57.6893 28.4516 57.9359 28.7031 57.9359 29.0141C57.9359 29.325 57.6893 29.5766 57.3844 29.5766H47.3649C47.3588 29.6859 47.3572 29.7984 47.3572 29.9141C47.3572 30.4359 47.2699 31.0047 47.106 31.5781H54.2882C54.593 31.5781 54.8397 31.8297 54.8397 32.1406C54.8397 32.4516 54.593 32.7031 54.2882 32.7031H46.6847C46.0841 33.9828 45.1067 35.1594 43.832 35.7719C43.7554 35.8094 43.6758 35.8266 43.5961 35.8266ZM34.4039 35.8266C34.3242 35.8266 34.2446 35.8094 34.1695 35.7734C32.8948 35.1609 31.9174 33.9844 31.3184 32.7047H23.6797C23.3748 32.7047 23.1281 32.4531 23.1281 32.1422C23.1281 31.8313 23.3748 31.5797 23.6797 31.5797H30.8955C30.7316 31.0047 30.6458 30.4375 30.6458 29.9156C30.6458 29.8 30.6428 29.6875 30.6382 29.5781H20.6156C20.3107 29.5766 20.0641 29.325 20.0641 29.0141C20.0641 28.7031 20.3107 28.4516 20.6156 28.4516H30.4604C30.0575 27.0938 28.9897 26.4516 27.185 26.4516H17.5515C17.2467 26.4516 17 26.2 17 25.8891C17 25.5781 17.2467 25.3266 17.5515 25.3266H27.185C29.7649 25.3266 31.3276 26.5781 31.6753 28.8781C31.683 28.9141 31.6891 28.95 31.6907 28.9891C31.729 29.2813 31.7489 29.5891 31.7489 29.9141C31.7489 31.8172 33.045 33.9891 34.6383 34.7547C34.9141 34.8875 35.032 35.2219 34.9018 35.5031C34.8084 35.7078 34.6107 35.8266 34.4039 35.8266ZM41.4773 34.2656C41.3042 34.2656 41.1326 34.1828 41.0253 34.0266C40.8507 33.7719 40.912 33.4219 41.1602 33.2438C42.5834 32.2266 43.1886 31.1313 43.1886 29.5844C43.1886 28.2109 42.395 26.9078 41.2597 26.4125C40.9794 26.2906 40.8492 25.9594 40.9702 25.675C41.0897 25.3891 41.416 25.2563 41.6948 25.3781C43.2238 26.0438 44.2932 27.7734 44.2932 29.5844C44.2932 31.4906 43.498 32.9453 41.7944 34.1656C41.6979 34.2328 41.5861 34.2656 41.4773 34.2656Z" fill="white"/>
</svg>
