<svg width="56" height="49" viewBox="0 0 56 49" fill="none" xmlns="http://www.w3.org/2000/svg">
<path d="M33.4734 1.63042C30.1488 -0.543426 25.8529 -0.543466 22.5283 1.63026L0.905498 15.768C0.345257 16.1343 0.00541625 16.7566 6.42341e-05 17.4259C-0.000527767 17.4999 0.00297614 17.5734 0.0104162 17.6461C0.00417614 17.7105 0.000976187 17.7757 0.000976187 17.8418V33.8418C0.000976187 34.9462 0.896418 35.8418 2.00098 35.8418C3.10554 35.8418 4.00098 34.9462 4.00098 33.8418V21.2115L8.00099 23.9191V38.6418C8.00099 39.1166 8.17215 39.5782 8.47952 39.9398L8.48255 39.9434L8.49047 39.9526L8.51392 39.9798L8.59107 40.067C8.65588 40.139 8.74743 40.2394 8.86512 40.363C9.10036 40.6106 9.44088 40.9542 9.88204 41.3614C10.763 42.1746 12.0535 43.2494 13.717 44.3226C17.0396 46.4662 21.9123 48.6418 28.0014 48.6418C34.0905 48.6418 38.9631 46.4658 42.2855 44.3226C43.9491 43.2494 45.2395 42.1746 46.1203 41.3614C46.5615 40.9542 46.9019 40.6106 47.1371 40.363C47.2547 40.239 47.3463 40.139 47.4111 40.067L47.4883 39.9798L47.5119 39.9526L47.5195 39.9434L47.5251 39.937C47.8323 39.5754 48.0011 39.1166 48.0011 38.6418V23.9181L55.1211 19.0981C55.6755 18.7229 56.0067 18.2633 55.9999 17.4259C55.9947 16.7566 55.6547 16.1343 55.0947 15.768L33.4734 1.63042ZM44.0011 26.6258V37.8506C43.8415 38.0114 43.6431 38.2042 43.4071 38.4222C42.6631 39.109 41.5535 40.0346 40.1171 40.9614C37.2395 42.8178 33.1124 44.6418 28.0014 44.6418C22.8905 44.6418 18.763 42.8178 15.8855 40.9614C14.4488 40.0346 13.3392 39.109 12.5951 38.4222C12.359 38.2042 12.1606 38.0114 12.001 37.8506V26.6267L22.3951 33.6626C25.7809 35.9542 30.2208 35.9542 33.6065 33.6622L44.0011 26.6258ZM10.001 38.6418L8.47952 39.9398C8.47952 39.9398 8.47715 39.937 10.001 38.6418ZM24.7172 4.97815C26.712 3.6739 29.2896 3.67394 31.2843 4.97827L50.3899 17.4418L31.3642 30.35C29.3328 31.7251 26.6688 31.7251 24.6374 30.35L5.61055 17.4708L24.7172 4.97815Z" fill="#69C1F7"/>
</svg>
