<svg width="45" height="54" viewBox="0 0 45 54" fill="none" xmlns="http://www.w3.org/2000/svg">
<path d="M22.5 53.9698C22.1882 53.9698 21.9359 53.687 21.9359 53.3374V39.2827C21.9359 38.9331 22.1882 38.6503 22.5 38.6503C22.8118 38.6503 23.0641 38.9331 23.0641 39.2827V53.3374C23.0641 53.687 22.8118 53.9698 22.5 53.9698ZM19.9648 46.6368C19.8912 46.6368 19.816 46.6193 19.7439 46.5859C18.1786 45.8357 17.085 43.8927 17.085 41.8565C17.085 39.7132 17.8966 38.0775 19.6405 36.7055C19.8975 36.5069 20.2469 36.5755 20.4255 36.8601C20.6041 37.1464 20.543 37.5417 20.2876 37.742C18.8336 38.8839 18.2115 40.1172 18.2115 41.8565C18.2115 43.4007 19.0232 44.8677 20.1842 45.4229C20.4709 45.5599 20.6041 45.9306 20.4819 46.2538C20.3926 46.4928 20.1842 46.6368 19.9648 46.6368ZM25.0336 46.6368C24.8644 46.6368 24.6952 46.549 24.5839 46.3856C24.3959 46.108 24.4445 45.7092 24.692 45.4984C26.1398 44.2686 26.7838 43.3832 26.7838 41.3962C26.7838 38.9366 24.6231 37.2747 22.3355 35.5178C19.7627 33.5414 17.1038 31.4982 17.1038 28.0127C17.1038 26.0696 18.1206 24.297 19.6953 23.4976C19.9789 23.3571 20.3142 23.4959 20.4427 23.8138C20.5712 24.1318 20.4443 24.5078 20.1607 24.6518C18.9887 25.2457 18.2319 26.565 18.2319 28.0144C18.2319 30.8324 20.5352 32.6033 22.9732 34.4778C25.4018 36.3436 27.9135 38.2708 27.9135 41.398C27.9135 43.8786 27.0219 45.1066 25.3752 46.5086C25.2733 46.5929 25.1527 46.6368 25.0336 46.6368ZM25.0336 33.7399C24.8644 33.7399 24.6952 33.6521 24.5839 33.4887C24.3959 33.2094 24.4445 32.8123 24.692 32.6015C26.1398 31.3735 26.7838 30.4898 26.7838 28.5011C26.7838 26.305 25.0602 24.745 23.0625 23.1866V30.5021C23.0625 30.8517 22.8102 31.1346 22.4984 31.1346C22.1866 31.1346 21.9344 30.8517 21.9344 30.5021V22.317C19.4932 20.4337 17.1022 18.4256 17.1022 15.1193C17.1022 13.1745 18.1191 11.4018 19.6938 10.6042C19.9774 10.4637 20.3127 10.6025 20.4412 10.9205C20.5696 11.2384 20.4427 11.6144 20.1591 11.7585C18.9871 12.3523 18.2303 13.6717 18.2303 15.121C18.2303 17.5349 19.9194 19.1793 21.9344 20.778V8.24481C20.1623 7.93912 18.8007 6.21742 18.8007 4.14612C18.8007 1.86048 20.46 0 22.4984 0C24.5385 0 26.1962 1.86048 26.1962 4.14612C26.1962 6.21742 24.8346 7.93912 23.0625 8.24481V21.6494C25.4629 23.4923 27.9119 25.4126 27.9119 28.5011C27.9119 30.9835 27.0204 32.2132 25.3736 33.6117C25.2733 33.696 25.1527 33.7399 25.0336 33.7399ZM22.5 7.02557C22.5157 7.02557 22.5313 7.02557 22.547 7.02732C23.9415 6.99921 25.0696 5.71848 25.0696 4.14612C25.0696 2.55795 23.918 1.26492 22.5 1.26492C21.082 1.26492 19.9304 2.55795 19.9304 4.14612C19.9304 5.71848 21.0585 6.99921 22.453 7.02732C22.4687 7.02557 22.4843 7.02557 22.5 7.02557ZM27.2006 22.3469C26.989 22.3469 26.7853 22.2134 26.6913 21.9832C26.5581 21.667 26.6788 21.291 26.9608 21.1417C28.5919 20.2791 29.919 17.8389 29.919 15.699C29.919 12.3716 31.5783 10.541 34.5867 10.541H44.4359C44.7477 10.541 45 10.8238 45 11.1734C45 11.5231 44.7477 11.8059 44.4359 11.8059H34.5867C32.7409 11.8059 31.6489 12.528 31.2368 14.0546H41.3022C41.614 14.0546 41.8663 14.3375 41.8663 14.6871C41.8663 15.0367 41.614 15.3196 41.3022 15.3196H31.055C31.0487 15.4425 31.0472 15.569 31.0472 15.699C31.0472 16.2858 30.9579 16.9253 30.7902 17.5701H38.1356C38.4474 17.5701 38.6997 17.8529 38.6997 18.2025C38.6997 18.5521 38.4474 18.835 38.1356 18.835H30.3593C29.7451 20.2738 28.7455 21.5967 27.4419 22.2854C27.3635 22.3276 27.282 22.3469 27.2006 22.3469ZM17.7994 22.3469C17.718 22.3469 17.6365 22.3276 17.5597 22.2872C16.2561 21.5985 15.2564 20.2756 14.6438 18.8367H6.83148C6.51967 18.8367 6.26741 18.5539 6.26741 18.2043C6.26741 17.8547 6.51967 17.5718 6.83148 17.5718H14.2114C14.0437 16.9253 13.956 16.2876 13.956 15.7008C13.956 15.5708 13.9528 15.4443 13.9481 15.3213H3.69777C3.38597 15.3196 3.1337 15.0367 3.1337 14.6871C3.1337 14.3375 3.38597 14.0546 3.69777 14.0546H13.7664C13.3543 12.528 12.2622 11.8059 10.4164 11.8059H0.564067C0.252263 11.8059 0 11.5231 0 11.1734C0 10.8238 0.252263 10.541 0.564067 10.541H10.4164C13.055 10.541 14.6532 11.9482 15.0089 14.5343C15.0167 14.5747 15.023 14.6151 15.0245 14.659C15.0637 14.9875 15.0841 15.3336 15.0841 15.699C15.0841 17.8389 16.4096 20.2809 18.0392 21.1417C18.3212 21.291 18.4419 21.667 18.3087 21.9832C18.2131 22.2134 18.011 22.3469 17.7994 22.3469ZM25.0336 20.5918C24.8565 20.5918 24.6811 20.4987 24.5714 20.323C24.3928 20.0367 24.4554 19.6431 24.7093 19.4428C26.1649 18.2991 26.7838 17.0676 26.7838 15.3283C26.7838 13.7841 25.9721 12.3189 24.8111 11.762C24.5244 11.6249 24.3912 11.2525 24.515 10.9328C24.6372 10.6113 24.9709 10.4619 25.2561 10.599C26.8198 11.3474 27.9135 13.2922 27.9135 15.3283C27.9135 17.4717 27.1003 19.1073 25.3579 20.4794C25.2592 20.5549 25.1448 20.5918 25.0336 20.5918Z" fill="#F5F5F5" fill-opacity="0.7"/>
</svg>
