<svg width="42" height="56" viewBox="0 0 42 56" fill="none" xmlns="http://www.w3.org/2000/svg">
<path d="M10.4062 20.7351C7.59533 17.9242 11.8927 13.9652 14.1744 16.2469L28.5349 30.6075L25.4906 27.5631C24.4681 25.0471 24.7783 21.0266 27.4857 21.0266C31.8971 25.438 34.9464 28.8925 36.8881 30.7758C42.3706 36.2583 42.3706 45.1473 36.8881 50.6299C31.4055 56.1126 22.6353 56.1401 17.1527 50.6576L1.97374 35.4786C-0.574036 32.9308 3.01196 29.4774 4.98758 31.453L13.669 40.2961L6.11923 32.6057L2.14994 28.5626C-1.15104 25.2616 3.48436 21.8056 5.67747 23.9987C1.27866 19.5999 6.13067 16.4596 8.58732 18.9161L20.3783 30.7071" stroke="#F5F5F5" stroke-opacity="0.7" stroke-width="1.4" stroke-miterlimit="10" stroke-linecap="round" stroke-linejoin="round"/>
<path d="M8.30347 12.8879L8.55089 14.4989" stroke="#F5F5F5" stroke-opacity="0.7" stroke-width="1.4" stroke-miterlimit="10" stroke-linecap="round" stroke-linejoin="round"/>
<path d="M16.7186 35.2545L5.19958 23.521" stroke="#F5F5F5" stroke-opacity="0.7" stroke-width="1.4" stroke-miterlimit="10" stroke-linecap="round" stroke-linejoin="round"/>
<path d="M20.3782 30.7072L8.58722 18.9163" stroke="#F5F5F5" stroke-opacity="0.7" stroke-width="1.4" stroke-miterlimit="10" stroke-linecap="round" stroke-linejoin="round"/>
<path d="M1.97377 35.4786C-0.57401 32.9309 3.01199 29.4775 4.98761 31.4531L13.669 40.2961" stroke="#F5F5F5" stroke-opacity="0.7" stroke-width="1.4" stroke-miterlimit="10" stroke-linecap="round" stroke-linejoin="round"/>
<path d="M2.14988 28.5625C-1.1511 25.2615 3.4843 21.8055 5.67741 23.9986" stroke="#F5F5F5" stroke-opacity="0.7" stroke-width="1.4" stroke-miterlimit="10" stroke-linecap="round" stroke-linejoin="round"/>
<path d="M8.58722 18.9161C6.13057 16.4595 1.27856 19.5998 5.67737 23.9986" stroke="#F5F5F5" stroke-opacity="0.7" stroke-width="1.4" stroke-miterlimit="10" stroke-linecap="round" stroke-linejoin="round"/>
<path d="M36.888 30.7758C34.9464 28.8924 31.8971 25.4379 27.4857 21.0266C24.7782 21.0266 24.468 25.0471 25.4905 27.5631L28.5349 30.6075L14.1744 16.247C11.8926 13.9652 7.59536 17.9243 10.4062 20.7351" stroke="#F5F5F5" stroke-opacity="0.7" stroke-width="1.4" stroke-miterlimit="10" stroke-linecap="round" stroke-linejoin="round"/>
<path d="M2.14984 28.5627L6.11913 32.606" stroke="#F5F5F5" stroke-opacity="0.7" stroke-width="1.4" stroke-miterlimit="10" stroke-linecap="round" stroke-linejoin="round"/>
<path d="M36.888 30.7759C42.3706 36.2584 42.3706 45.1474 36.888 50.6301C31.4055 56.1127 22.6353 56.1403 17.1527 50.6577" stroke="#F5F5F5" stroke-opacity="0.7" stroke-width="1.4" stroke-miterlimit="10" stroke-linecap="round" stroke-linejoin="round"/>
<path d="M1.97369 35.4788L17.1526 50.6578" stroke="#F5F5F5" stroke-opacity="0.7" stroke-width="1.4" stroke-miterlimit="10" stroke-linecap="round" stroke-linejoin="round"/>
<path d="M19.774 17.6117L17.978 5.15503" stroke="#F5F5F5" stroke-opacity="0.7" stroke-width="1.4" stroke-miterlimit="10" stroke-linecap="round" stroke-linejoin="round"/>
<path d="M25.6658 18.4149L23.4332 3.44629" stroke="#F5F5F5" stroke-opacity="0.7" stroke-width="1.4" stroke-miterlimit="10" stroke-linecap="round" stroke-linejoin="round"/>
<path d="M8.30346 12.888C7.75639 9.32665 12.6905 8.66353 13.1147 11.4251L13.3097 12.9237" stroke="#F5F5F5" stroke-opacity="0.7" stroke-width="1.4" stroke-miterlimit="10" stroke-linecap="round" stroke-linejoin="round"/>
<path d="M12.5366 7.4159C11.8278 2.80172 17.6097 2.75734 18.0806 5.82287" stroke="#F5F5F5" stroke-opacity="0.7" stroke-width="1.4" stroke-miterlimit="10" stroke-linecap="round" stroke-linejoin="round"/>
<path d="M23.4332 3.44641C22.9057 0.0124725 17.136 -0.325823 18.0805 5.82301" stroke="#F5F5F5" stroke-opacity="0.7" stroke-width="1.4" stroke-miterlimit="10" stroke-linecap="round" stroke-linejoin="round"/>
<path d="M39.0992 28.9265C38.6478 26.2595 38.3692 22.4935 37.422 16.3272C35.2391 14.7256 32.6106 17.7838 31.9467 20.4171L29.517 4.59933C29.0271 1.40983 23.2203 2.05983 23.8238 5.98888" stroke="#F5F5F5" stroke-opacity="0.7" stroke-width="1.4" stroke-miterlimit="10" stroke-linecap="round" stroke-linejoin="round"/>
<path d="M12.5367 7.41577L13.2202 12.21" stroke="#F5F5F5" stroke-opacity="0.7" stroke-width="1.4" stroke-miterlimit="10" stroke-linecap="round" stroke-linejoin="round"/>
</svg>
