<svg width="50" height="50" viewBox="0 0 50 50" fill="none" xmlns="http://www.w3.org/2000/svg">
<path d="M16.4286 18.1429H19.8572M30.1429 31.8572H33.5715M33.5715 16.4286L16.4286 33.5715M22.605 1.99205L18.7341 5.86299C18.0989 6.49817 17.2374 6.85505 16.3391 6.85505H10.2421C8.37148 6.85505 6.85505 8.37148 6.85505 10.2421V16.3391C6.85505 17.2374 6.49817 18.0989 5.86299 18.7341L1.99205 22.605C0.669317 23.9278 0.669317 26.0723 1.99205 27.3951L5.86299 31.266C6.49817 31.9012 6.85505 32.7627 6.85505 33.661V39.758C6.85505 41.6286 8.37148 43.1451 10.2421 43.1451H16.3391C17.2374 43.1451 18.0989 43.502 18.7341 44.137L22.605 48.0082C23.9278 49.3306 26.0723 49.3306 27.3951 48.0082L31.266 44.137C31.9012 43.502 32.7627 43.1451 33.661 43.1451H39.758C41.6286 43.1451 43.1451 41.6286 43.1451 39.758V33.661C43.1451 32.7627 43.502 31.9012 44.137 31.266L48.0082 27.3951C49.3306 26.0723 49.3306 23.9278 48.0082 22.605L44.137 18.7341C43.502 18.0989 43.1451 17.2374 43.1451 16.3391V10.2421C43.1451 8.37148 41.6286 6.85505 39.758 6.85505H33.661C32.7627 6.85505 31.9012 6.49817 31.266 5.86299L27.3951 1.99205C26.0723 0.669317 23.9278 0.669317 22.605 1.99205V1.99205Z" stroke="#F5F5F5" stroke-opacity="0.7" stroke-width="1.9"/>
</svg>
