<svg width="30" height="31" viewBox="0 0 30 31" fill="none" xmlns="http://www.w3.org/2000/svg">
<path d="M15 30.25C23.2843 30.25 30 23.5343 30 15.25C30 6.96573 23.2843 0.25 15 0.25C6.71573 0.25 0 6.96573 0 15.25C0 23.5343 6.71573 30.25 15 30.25Z" fill="#0A66C2"/>
<path d="M20.3057 20.5586H18.0791V17.0723C18.0791 16.2402 18.0615 15.1709 16.9189 15.1709C15.7588 15.1709 15.5801 16.0762 15.5801 17.0107V20.5586H13.3535V13.3867H15.4922V14.3652H15.5215C15.8203 13.8027 16.5469 13.208 17.6309 13.208C19.8867 13.208 20.3027 14.6934 20.3027 16.624L20.3057 20.5586ZM10.8428 12.4053C10.125 12.4053 9.55078 11.8252 9.55078 11.1133C9.55078 10.4014 10.1279 9.82129 10.8428 9.82129C11.5576 9.82129 12.1348 10.4014 12.1348 11.1133C12.1348 11.8252 11.5547 12.4053 10.8428 12.4053ZM11.959 20.5586H9.72656V13.3867H11.959V20.5586ZM21.4189 7.75H8.61035C7.99805 7.75 7.5 8.2334 7.5 8.83398V21.6953C7.5 22.293 7.99512 22.7793 8.61035 22.7793H21.416C22.0283 22.7793 22.5293 22.2959 22.5293 21.6953V8.83398C22.5293 8.2334 22.0283 7.75 21.4189 7.75Z" fill="#F5F5F5"/>
</svg>
