<svg width="76" height="80" viewBox="0 0 76 80" fill="none" xmlns="http://www.w3.org/2000/svg">
<rect x="4.57764e-05" y="0.5" width="76" height="79" rx="20" fill="#122362"/>
<path d="M54 34.404C54.0024 31.7028 53.3155 29.0452 52.004 26.681C50.6924 24.3167 48.7991 22.3233 46.502 20.8879C44.2048 19.4526 41.5791 18.6223 38.8714 18.4752C36.1638 18.3281 33.463 18.8689 31.0227 20.0469C28.5825 21.2248 26.4828 23.0013 24.9208 25.2094C23.3589 27.4175 22.386 29.9849 22.0934 32.6704C21.8008 35.3558 22.1982 38.0713 23.2483 40.5618C24.2983 43.0523 25.9666 45.2361 28.0964 46.9081V61.727C28.0964 61.8563 28.1296 61.9836 28.1928 62.0965C28.2561 62.2095 28.3473 62.3045 28.4578 62.3725C28.5682 62.4405 28.6943 62.4793 28.8241 62.4851C28.9538 62.4909 29.0829 62.4636 29.199 62.4058L37.9996 58.0217L46.8032 62.4059C46.9194 62.4638 47.0485 62.4911 47.1782 62.4852C47.3079 62.4794 47.434 62.4407 47.5445 62.3726C47.655 62.3046 47.7462 62.2096 47.8094 62.0966C47.8727 61.9836 47.9059 61.8564 47.9059 61.727V46.9065C49.8048 45.4174 51.3399 43.5186 52.3955 41.353C53.4511 39.1873 53.9997 36.8114 54 34.404ZM46.3821 60.499L38.3404 56.4942C38.2346 56.4416 38.1179 56.4142 37.9996 56.4142C37.8813 56.4142 37.7647 56.4416 37.6588 56.4943L29.6202 60.4988V47.9744C32.1393 49.5228 35.0412 50.3426 38.0013 50.3424C40.9614 50.3422 43.8631 49.5218 46.3821 47.973V60.499ZM38 48.8245C35.1369 48.8245 32.3381 47.9787 29.9575 46.3942C27.5769 44.8096 25.7214 42.5575 24.6257 39.9225C23.5301 37.2875 23.2434 34.388 23.802 31.5907C24.3605 28.7934 25.7393 26.2239 27.7638 24.2072C29.7883 22.1905 32.3677 20.817 35.1758 20.2606C37.9839 19.7042 40.8946 19.9898 43.5398 21.0812C46.185 22.1727 48.4458 24.021 50.0365 26.3924C51.6272 28.7639 52.4762 31.5519 52.4762 34.404C52.4718 38.2272 50.9453 41.8926 48.2314 44.596C45.5175 47.2994 41.838 48.8201 38 48.8245ZM38 24.5374C36.041 24.5374 34.126 25.116 32.4972 26.2002C30.8684 27.2844 29.5989 28.8253 28.8492 30.6282C28.0995 32.4311 27.9034 34.4149 28.2856 36.3289C28.6677 38.2428 29.6111 40.0009 30.9963 41.3808C32.3815 42.7606 34.1463 43.7003 36.0677 44.081C37.989 44.4618 39.9805 44.2664 41.7904 43.5196C43.6002 42.7728 45.1472 41.5082 46.2355 39.8856C47.3239 38.263 47.9048 36.3554 47.9048 34.404C47.9018 31.7881 46.8573 29.2802 45.0004 27.4305C43.1436 25.5808 40.626 24.5403 38 24.5374ZM38 42.7527C36.3424 42.7527 34.722 42.263 33.3438 41.3457C31.9655 40.4283 30.8913 39.1244 30.257 37.5989C29.6227 36.0734 29.4567 34.3947 29.7801 32.7752C30.1035 31.1558 30.9017 29.6682 32.0738 28.5006C33.2459 27.333 34.7392 26.5379 36.365 26.2157C37.9907 25.8936 39.6758 26.0589 41.2072 26.6908C42.7387 27.3227 44.0476 28.3928 44.9685 29.7657C45.8894 31.1386 46.3809 32.7528 46.3809 34.404C46.3784 36.6174 45.4946 38.7395 43.9235 40.3046C42.3523 41.8698 40.222 42.7502 38 42.7527Z" fill="white"/>
</svg>
