<svg width="77" height="80" viewBox="0 0 77 80" fill="none" xmlns="http://www.w3.org/2000/svg">
<rect x="0.333435" y="0.5" width="76" height="79" rx="20" fill="#122362"/>
<path d="M30.4785 58.5158H24.9915C24.0213 58.5158 23.0909 58.0836 22.4049 57.3144C21.7188 56.5452 21.3334 55.502 21.3334 54.4142V40.0587C21.3334 38.9709 21.7188 37.9276 22.4049 37.1584C23.0909 36.3892 24.0213 35.9571 24.9915 35.9571H30.4785M43.2817 31.8555V23.6524C43.2817 22.0207 42.7036 20.4558 41.6746 19.302C40.6456 18.1482 39.2499 17.5 37.7946 17.5L30.4785 35.9571V58.5158H51.1099C51.9921 58.5269 52.8482 58.1803 53.5204 57.5396C54.1926 56.8989 54.6357 56.0075 54.768 55.0294L57.292 36.5723C57.3716 35.9845 57.3362 35.3843 57.1884 34.8133C57.0405 34.2423 56.7837 33.7141 56.4358 33.2655C56.0878 32.8168 55.657 32.4583 55.1732 32.2149C54.6894 31.9714 54.1642 31.8488 53.634 31.8555H43.2817Z" stroke="white" stroke-width="1.7" stroke-linecap="round" stroke-linejoin="round"/>
</svg>
