<svg width="77" height="80" viewBox="0 0 77 80" fill="none" xmlns="http://www.w3.org/2000/svg">
<rect x="0.666687" y="0.5" width="76" height="79" rx="20" fill="#122362"/>
<path d="M39 63.5C38.6951 63.5 38.4485 63.2484 38.4485 62.9375V50.4375C38.4485 50.1266 38.6951 49.875 39 49.875C39.3049 49.875 39.5515 50.1266 39.5515 50.4375V62.9375C39.5515 63.2484 39.3049 63.5 39 63.5ZM36.5212 56.9781C36.4492 56.9781 36.3756 56.9625 36.3052 56.9328C34.7747 56.2656 33.7053 54.5375 33.7053 52.7266C33.7053 50.8203 34.4989 49.3656 36.204 48.1453C36.4553 47.9688 36.7969 48.0297 36.9716 48.2828C37.1462 48.5375 37.0865 48.8891 36.8368 49.0672C35.415 50.0828 34.8068 51.1797 34.8068 52.7266C34.8068 54.1 35.6004 55.4047 36.7357 55.8984C37.016 56.0203 37.1462 56.35 37.0267 56.6375C36.9394 56.85 36.7357 56.9781 36.5212 56.9781ZM41.4773 56.9781C41.3118 56.9781 41.1464 56.9 41.0376 56.7547C40.8538 56.5078 40.9013 56.1531 41.1433 55.9656C42.5589 54.8719 43.1886 54.0844 43.1886 52.3172C43.1886 50.1297 41.0759 48.6516 38.8391 47.0891C36.3235 45.3312 33.7237 43.5141 33.7237 40.4141C33.7237 38.6859 34.718 37.1094 36.2577 36.3984C36.535 36.2734 36.8628 36.3969 36.9884 36.6797C37.1141 36.9625 36.99 37.2969 36.7127 37.425C35.5667 37.9531 34.8267 39.1266 34.8267 40.4156C34.8267 42.9219 37.0788 44.4969 39.4627 46.1641C41.8373 47.8234 44.2932 49.5375 44.2932 52.3188C44.2932 54.525 43.4214 55.6172 41.8113 56.8641C41.7117 56.9391 41.5937 56.9781 41.4773 56.9781ZM41.4773 45.5078C41.3118 45.5078 41.1464 45.4297 41.0376 45.2844C40.8538 45.0359 40.9013 44.6828 41.1433 44.4953C42.5589 43.4031 43.1886 42.6172 43.1886 40.8484C43.1886 38.8953 41.5033 37.5078 39.55 36.1219V42.6281C39.55 42.9391 39.3033 43.1906 38.9985 43.1906C38.6936 43.1906 38.4469 42.9391 38.4469 42.6281V35.3484C36.06 33.6734 33.7221 31.8875 33.7221 28.9469C33.7221 27.2172 34.7164 25.6406 36.2561 24.9312C36.5334 24.8062 36.8613 24.9297 36.9869 25.2125C37.1125 25.4953 36.9884 25.8297 36.7111 25.9578C35.5652 26.4859 34.8252 27.6594 34.8252 28.9484C34.8252 31.0953 36.4767 32.5578 38.4469 33.9797V22.8328C36.7142 22.5609 35.3829 21.0297 35.3829 19.1875C35.3829 17.1547 37.0053 15.5 38.9985 15.5C40.9932 15.5 42.6141 17.1547 42.6141 19.1875C42.6141 21.0297 41.2827 22.5609 39.55 22.8328V34.7547C41.8971 36.3937 44.2916 38.1016 44.2916 40.8484C44.2916 43.0563 43.4199 44.15 41.8097 45.3937C41.7117 45.4687 41.5937 45.5078 41.4773 45.5078ZM39 21.7484C39.0153 21.7484 39.0306 21.7484 39.046 21.75C40.4095 21.725 41.5125 20.5859 41.5125 19.1875C41.5125 17.775 40.3865 16.625 39 16.625C37.6135 16.625 36.4875 17.775 36.4875 19.1875C36.4875 20.5859 37.5905 21.725 38.954 21.75C38.9694 21.7484 38.9847 21.7484 39 21.7484ZM43.5961 35.375C43.3893 35.375 43.1901 35.2562 43.0982 35.0516C42.968 34.7703 43.0859 34.4359 43.3617 34.3031C44.9565 33.5359 46.2542 31.3656 46.2542 29.4625C46.2542 26.5031 47.8766 24.875 50.8181 24.875H60.4485C60.7533 24.875 61 25.1266 61 25.4375C61 25.7484 60.7533 26 60.4485 26H50.8181C49.0134 26 47.9455 26.6422 47.5426 28H57.3844C57.6893 28 57.9359 28.2516 57.9359 28.5625C57.9359 28.8734 57.6893 29.125 57.3844 29.125H47.3649C47.3588 29.2344 47.3572 29.3469 47.3572 29.4625C47.3572 29.9844 47.2699 30.5531 47.106 31.1266H54.2882C54.593 31.1266 54.8397 31.3781 54.8397 31.6891C54.8397 32 54.593 32.2516 54.2882 32.2516H46.6847C46.0841 33.5312 45.1067 34.7078 43.832 35.3203C43.7554 35.3578 43.6758 35.375 43.5961 35.375ZM34.4039 35.375C34.3242 35.375 34.2446 35.3578 34.1695 35.3219C32.8948 34.7094 31.9174 33.5328 31.3184 32.2531H23.6797C23.3748 32.2531 23.1281 32.0016 23.1281 31.6906C23.1281 31.3797 23.3748 31.1281 23.6797 31.1281H30.8955C30.7316 30.5531 30.6458 29.9859 30.6458 29.4641C30.6458 29.3484 30.6428 29.2359 30.6382 29.1266H20.6156C20.3107 29.125 20.0641 28.8734 20.0641 28.5625C20.0641 28.2516 20.3107 28 20.6156 28H30.4604C30.0575 26.6422 28.9897 26 27.185 26H17.5515C17.2467 26 17 25.7484 17 25.4375C17 25.1266 17.2467 24.875 17.5515 24.875H27.185C29.7649 24.875 31.3276 26.1266 31.6753 28.4266C31.683 28.4625 31.6891 28.4984 31.6907 28.5375C31.729 28.8297 31.7489 29.1375 31.7489 29.4625C31.7489 31.3656 33.045 33.5375 34.6383 34.3031C34.9141 34.4359 35.032 34.7703 34.9018 35.0516C34.8084 35.2562 34.6107 35.375 34.4039 35.375ZM41.4773 33.8141C41.3042 33.8141 41.1326 33.7312 41.0253 33.575C40.8507 33.3203 40.912 32.9703 41.1602 32.7922C42.5834 31.775 43.1886 30.6797 43.1886 29.1328C43.1886 27.7594 42.395 26.4563 41.2597 25.9609C40.9794 25.8391 40.8492 25.5078 40.9702 25.2234C41.0897 24.9375 41.416 24.8047 41.6948 24.9266C43.2238 25.5922 44.2932 27.3219 44.2932 29.1328C44.2932 31.0391 43.498 32.4937 41.7944 33.7141C41.6979 33.7812 41.5861 33.8141 41.4773 33.8141Z" fill="white"/>
</svg>
