<svg width="13" height="15" viewBox="0 0 13 15" fill="none" xmlns="http://www.w3.org/2000/svg">
<path d="M13 11.2764C13 9.69727 11.7522 8.46387 10.2143 8.46387C9.46272 8.46387 8.7808 8.73633 8.2817 9.22559L5.55112 7.84863C5.56562 7.73438 5.54531 7.64356 5.54531 7.5C5.54531 7.38281 5.56562 7.29199 5.55112 7.15137L8.2817 5.77442C8.7808 6.26367 9.46272 6.5625 10.2143 6.5625C11.7522 6.5625 13 5.3291 13 3.75C13 2.19727 11.7522 0.937501 10.2143 0.937501C8.65022 0.937501 7.42857 2.19727 7.42857 3.75C7.42857 3.89356 7.43438 3.98438 7.44888 4.09863L4.7183 5.47559C4.2192 4.98633 3.53728 4.6875 2.78571 4.6875C1.24719 4.6875 0 5.94727 0 7.5C0 9.0791 1.24719 10.3125 2.78571 10.3125C3.53728 10.3125 4.2192 10.0137 4.7183 9.52441L7.44888 10.9014C7.43438 11.042 7.42857 11.1328 7.42857 11.25C7.42857 12.8033 8.65022 14.0625 10.2143 14.0625C11.7522 14.0625 13 12.8033 13 11.25V11.2764ZM2.7596 6.58887C3.29933 6.58887 3.68817 6.98145 3.68817 7.52637C3.68817 8.01855 3.29933 8.46387 2.7596 8.46387C2.27297 8.46387 1.83103 8.01855 1.83103 7.52637C1.83103 6.98145 2.27297 6.58887 2.7596 6.58887ZM10.2143 12.2139C9.70067 12.2139 9.28571 11.7686 9.28571 11.2764C9.28571 10.7314 9.70067 10.3389 10.2143 10.3389C10.7279 10.3389 11.1429 10.7314 11.1429 11.2764C11.1429 11.7686 10.7279 12.2139 10.2143 12.2139ZM10.2143 2.8125C10.7279 2.8125 11.1429 3.23145 11.1429 3.75C11.1429 4.26856 10.7279 4.6875 10.2143 4.6875C9.70067 4.6875 9.28571 4.26856 9.28571 3.75C9.28571 3.23145 9.70067 2.8125 10.2143 2.8125Z" fill="black"/>
</svg>
