<svg width="25" height="21" viewBox="0 0 25 21" fill="none" xmlns="http://www.w3.org/2000/svg">
<g clip-path="url(#clip0_56_1309)">
<path d="M24.5767 11.331H18.6157C18.7176 6.55831 19.9498 6.01654 21.4974 5.86191L22.0942 5.78063L22.0942 0.532541L21.4063 0.57304C19.3854 0.697948 17.1512 1.09818 15.6605 3.11977C14.3539 4.89195 13.7778 7.78722 13.7778 12.2317L13.7778 20.4674H24.5767V11.331Z" fill="#4C259F"/>
<path d="M10.7988 20.4674L10.7988 11.331H4.91744C5.01934 6.55831 6.21168 6.01654 7.75927 5.86191L8.31634 5.78063V0.532541L7.66816 0.57304C5.64729 0.697948 3.39306 1.09818 1.90245 3.11977C0.595916 4.89195 -5.72205e-06 7.78722 -5.72205e-06 12.2317L-5.72205e-06 20.4674H10.7988Z" fill="#4C259F"/>
</g>
<defs>
<clipPath id="clip0_56_1309">
<rect width="24.5767" height="19.9349" fill="white" transform="translate(24.5767 20.4674) rotate(180)"/>
</clipPath>
</defs>
</svg>
