<svg width="30" height="31" viewBox="0 0 30 31" fill="none" xmlns="http://www.w3.org/2000/svg">
<path d="M15 30.25C23.2843 30.25 30 23.5343 30 15.25C30 6.96573 23.2843 0.25 15 0.25C6.71573 0.25 0 6.96573 0 15.25C0 23.5343 6.71573 30.25 15 30.25Z" fill="#1DA1F2"/>
<path d="M22.793 10.6445C22.2422 10.8877 21.6534 11.0518 21.0323 11.1279C21.6651 10.7471 22.1514 10.1465 22.3799 9.43164C21.7881 9.77734 21.1289 10.0293 20.4317 10.1699C19.8721 9.57227 19.0782 9.19727 18.1934 9.19727C16.5 9.19727 15.126 10.5713 15.126 12.2617C15.126 12.5049 15.1553 12.7393 15.2051 12.9619C12.6563 12.8418 10.3946 11.6172 8.88284 9.76562C8.61624 10.2168 8.46683 10.7383 8.46683 11.3096C8.46683 12.376 9.00882 13.3135 9.83206 13.8643C9.32816 13.8467 8.85648 13.709 8.44339 13.4805V13.5186C8.44339 15.0068 9.49808 16.2461 10.9043 16.5273C10.6465 16.5977 10.3741 16.6328 10.0957 16.6328C9.89945 16.6328 9.71195 16.6152 9.52445 16.5801C9.91702 17.7988 11.0479 18.6865 12.3955 18.71C11.3496 19.5332 10.0196 20.0225 8.5928 20.0225C8.34964 20.0225 8.10648 20.0078 7.86331 19.9814C9.22855 20.8516 10.8369 21.3584 12.5743 21.3584C18.2139 21.3584 21.2989 16.6855 21.2989 12.6396C21.2989 12.5107 21.2989 12.3789 21.2901 12.2471C21.8877 11.8164 22.4121 11.2744 22.8223 10.6592L22.793 10.6445Z" fill="#F5F5F5"/>
</svg>
