<svg width="26" height="31" viewBox="0 0 26 31" fill="none" xmlns="http://www.w3.org/2000/svg">
<path d="M13 7V18" stroke="#122362" stroke-linecap="round" stroke-linejoin="round"/>
<path d="M15.5 9H11.75C11.2859 9 10.8408 9.18437 10.5126 9.51256C10.1844 9.84075 10 10.2859 10 10.75C10 11.2141 10.1844 11.6592 10.5126 11.9874C10.8408 12.3156 11.2859 12.5 11.75 12.5H14.25C14.7141 12.5 15.1592 12.6844 15.4874 13.0126C15.8156 13.3408 16 13.7859 16 14.25C16 14.7141 15.8156 15.1592 15.4874 15.4874C15.1592 15.8156 14.7141 16 14.25 16H10" stroke="#122362" stroke-width="1.8" stroke-linecap="round" stroke-linejoin="round"/>
<path d="M2 26.0625C2 25.1508 2.36216 24.2765 3.00682 23.6318C3.65148 22.9872 4.52582 22.625 5.4375 22.625H24" stroke="#122362" stroke-width="2.5" stroke-linecap="round" stroke-linejoin="round"/>
<path d="M5.4375 2H24V29.5H5.4375C4.52582 29.5 3.65148 29.1378 3.00682 28.4932C2.36216 27.8485 2 26.9742 2 26.0625V5.4375C2 4.52582 2.36216 3.65148 3.00682 3.00682C3.65148 2.36216 4.52582 2 5.4375 2V2Z" stroke="#122362" stroke-width="2.5" stroke-linecap="round" stroke-linejoin="round"/>
</svg>
