<svg width="29" height="29" viewBox="0 0 29 29" fill="none" xmlns="http://www.w3.org/2000/svg">
<path d="M13.1822 4.63566H4.48493C3.82588 4.63566 3.19383 4.89746 2.72782 5.36348C2.2618 5.82949 2 6.46154 2 7.12058V24.5151C2 25.1741 2.2618 25.8062 2.72782 26.2722C3.19383 26.7382 3.82588 27 4.48493 27H21.8794C22.5385 27 23.1705 26.7382 23.6365 26.2722C24.1025 25.8062 24.3643 25.1741 24.3643 24.5151V15.8178" stroke="#122362" stroke-width="2.5" stroke-linecap="round" stroke-linejoin="round"/>
<path d="M22.5005 2.77197C22.9947 2.27769 23.6651 2 24.3641 2C25.0632 2 25.7336 2.27769 26.2278 2.77197C26.7221 3.26625 26.9998 3.93664 26.9998 4.63566C26.9998 5.33468 26.7221 6.00507 26.2278 6.49936L14.4244 18.3028L9.45459 19.5452L10.6971 14.5754L22.5005 2.77197Z" stroke="#122362" stroke-width="2.5" stroke-linecap="round" stroke-linejoin="round"/>
</svg>
