<?xml version="1.0" encoding="UTF-8"?>
<svg xmlns="http://www.w3.org/2000/svg" xmlns:xlink="http://www.w3.org/1999/xlink" viewBox="0 0 240 240" width="240px" height="240px">
<g id="surface60379702">
<path style=" stroke:none;fill-rule:nonzero;fill:rgb(100%,100%,100%);fill-opacity:1;" d="M 76.800781 14.398438 C 42.382812 14.398438 14.398438 42.382812 14.398438 76.800781 L 14.398438 163.199219 C 14.398438 197.617188 42.382812 225.601562 76.800781 225.601562 L 163.199219 225.601562 C 197.617188 225.601562 225.601562 197.617188 225.601562 163.199219 L 225.601562 76.800781 C 225.601562 42.382812 197.617188 14.398438 163.199219 14.398438 Z M 177.601562 52.800781 C 182.878906 52.800781 187.199219 57.121094 187.199219 62.398438 C 187.199219 67.679688 182.878906 72 177.601562 72 C 172.320312 72 168 67.679688 168 62.398438 C 168 57.121094 172.320312 52.800781 177.601562 52.800781 Z M 120 67.199219 C 149.136719 67.199219 172.800781 90.863281 172.800781 120 C 172.800781 149.136719 149.136719 172.800781 120 172.800781 C 90.863281 172.800781 67.199219 149.136719 67.199219 120 C 67.199219 90.863281 90.863281 67.199219 120 67.199219 Z M 120 76.800781 C 96.191406 76.800781 76.800781 96.191406 76.800781 120 C 76.800781 143.808594 96.191406 163.199219 120 163.199219 C 143.808594 163.199219 163.199219 143.808594 163.199219 120 C 163.199219 96.191406 143.808594 76.800781 120 76.800781 Z M 120 76.800781 "/>
</g>
</svg>
