<?xml version="1.0" encoding="UTF-8"?>
<svg xmlns="http://www.w3.org/2000/svg" xmlns:xlink="http://www.w3.org/1999/xlink" viewBox="0 0 240 240" width="240px" height="240px">
<g id="surface60369374">
<path style=" stroke:none;fill-rule:nonzero;fill:rgb(100%,100%,100%);fill-opacity:1;" d="M 120 24 C 66.984375 24 24 66.984375 24 120 C 24 160.671875 49.304688 195.40625 85.015625 209.390625 C 84.175781 201.800781 83.414062 190.144531 85.351562 181.855469 C 87.097656 174.367188 96.609375 134.136719 96.609375 134.136719 C 96.609375 134.136719 93.734375 128.382812 93.734375 119.886719 C 93.734375 106.535156 101.472656 96.574219 111.105469 96.574219 C 119.296875 96.574219 123.246094 102.726562 123.246094 110.097656 C 123.246094 118.335938 118.007812 130.648438 115.296875 142.054688 C 113.03125 151.617188 120.089844 159.40625 129.511719 159.40625 C 146.574219 159.40625 159.6875 141.414062 159.6875 115.449219 C 159.6875 92.464844 143.175781 76.390625 119.59375 76.390625 C 92.28125 76.390625 76.246094 96.878906 76.246094 118.054688 C 76.246094 126.304688 79.425781 135.152344 83.390625 139.96875 C 84.175781 140.921875 84.289062 141.753906 84.054688 142.71875 C 83.328125 145.753906 81.710938 152.273438 81.390625 153.609375 C 80.976562 155.367188 80 155.734375 78.183594 154.886719 C 66.191406 149.304688 58.695312 131.777344 58.695312 117.695312 C 58.695312 87.414062 80.695312 59.601562 122.128906 59.601562 C 155.433594 59.601562 181.3125 83.328125 181.3125 115.046875 C 181.3125 148.136719 160.449219 174.761719 131.496094 174.761719 C 121.769531 174.761719 112.625 169.703125 109.496094 163.734375 C 109.496094 163.734375 104.679688 182.0625 103.511719 186.558594 C 101.34375 194.894531 95.496094 205.351562 91.574219 211.726562 C 100.558594 214.496094 110.105469 216 120 216 C 173.015625 216 216 173.015625 216 120 C 216 66.984375 173.015625 24 120 24 Z M 120 24 "/>
</g>
</svg>
