<svg width="124" height="112" viewBox="0 0 124 112" fill="none" xmlns="http://www.w3.org/2000/svg">
<path d="M123.456 56.5441H122.278C116.658 56.4988 99.6623 56.4081 92.1843 56.4081C90.0541 56.4081 87.9693 56 85.9752 55.2292C85.1594 54.9117 84.7515 54.0502 85.0234 53.234L87.5161 45.6615L80.5819 47.1579C79.8115 47.3393 78.9957 46.8858 78.7237 46.1603L77.6813 43.4397L71.9255 49.5611C71.4723 50.0599 70.7471 50.1506 70.1579 49.8785C69.5688 49.5611 69.2515 48.9263 69.3875 48.2915L72.2427 33.9174L68.2091 36.1846C67.8919 36.366 67.5293 36.4113 67.212 36.2753C66.8948 36.1846 66.5775 35.9579 66.4416 35.6405L62.0454 26.8437L57.5585 35.6405C57.4226 35.9579 57.1053 36.1846 56.7881 36.2753C56.4708 36.366 56.1082 36.3207 55.791 36.1846L51.7574 33.9174L54.6126 48.2915C54.7486 48.9263 54.4313 49.6065 53.8421 49.8785C53.253 50.196 52.5278 50.0599 52.0746 49.5611L46.3188 43.4397L45.2764 46.1603C45.0044 46.8858 44.1886 47.3393 43.4182 47.1579L36.484 45.6615L38.9766 53.234C39.0673 53.5061 38.9313 53.8235 38.6594 53.8688C38.3875 53.9595 38.1155 53.8235 38.0249 53.5514L34.9883 44.2559L43.6901 46.1603C43.962 46.2057 44.2793 46.0696 44.3699 45.7976L46.0015 41.4899L52.8904 48.8356C53.117 49.0623 53.3436 48.9717 53.3889 48.9263C53.4343 48.881 53.6609 48.7449 53.6155 48.4729L50.3524 31.8769L56.3802 35.2777C56.4708 35.3231 56.5161 35.3231 56.5614 35.2777C56.6068 35.2777 56.6521 35.2324 56.6974 35.1417L62 24.4858L67.348 35.1417C67.3933 35.2324 67.4386 35.2324 67.484 35.2777C67.5293 35.2777 67.5746 35.3231 67.6653 35.2777L73.693 31.8769L70.4299 48.4729C70.3845 48.7903 70.5658 48.9263 70.6565 48.9263C70.7018 48.9717 70.9737 49.0623 71.155 48.8356L78.0439 41.4899L79.6755 45.7976C79.7661 46.0696 80.0834 46.2057 80.3553 46.1603L89.0571 44.2559L86.0205 53.5514C85.9299 53.8235 86.0658 54.1409 86.3831 54.2769C88.2413 55.0024 90.2354 55.3652 92.2296 55.3652C99.7077 55.3652 116.749 55.4559 122.323 55.5012H123.502C123.773 55.5012 124 55.7279 124 56.0453C124 56.3174 123.728 56.5441 123.456 56.5441Z" fill="white"/>
<path d="M63.9942 85.1563H59.9605L60.9123 72.1425C60.9576 71.8251 60.8216 71.5077 60.595 71.3263C60.3684 71.0996 60.0512 71.0089 59.7339 71.0542L46.4547 73.3214L48.4035 67.9708C48.4942 67.7441 48.4035 67.5174 48.2222 67.336L36.8918 58.1312C35.4868 56.9976 33.7193 56.3627 31.9064 56.3627H31.8611L0.498538 56.4988C0.226608 56.4988 0 56.2721 0 56C0 55.7279 0.226608 55.5012 0.498538 55.4559L31.8611 55.3198H31.9064C33.9459 55.3198 35.9401 56.0453 37.5716 57.315L48.902 66.5198C49.4459 66.9279 49.6272 67.6534 49.4006 68.2882L48.0409 71.9611L59.5526 69.966C60.1871 69.8753 60.8216 70.0567 61.2749 70.4648C61.7281 70.8729 62 71.5077 61.9547 72.1425L61.0936 84.0227H62.9064L62.0453 72.1425C62 71.5077 62.2266 70.8729 62.7251 70.4648C63.1784 70.0567 63.8129 69.8299 64.4474 69.966L75.9591 71.9611L74.5994 68.2882C74.3728 67.6534 74.5541 66.9279 75.098 66.5198L86.4284 57.315C86.655 57.1336 86.9722 57.1789 87.1535 57.4057C87.3348 57.6324 87.2895 57.9498 87.0629 58.1312L75.7325 67.336C75.5512 67.472 75.4605 67.7441 75.5512 67.9708L77.5 73.3214L64.2208 71.0542C63.9035 71.0089 63.5863 71.0996 63.3596 71.3263C63.133 71.553 62.9971 71.8251 63.0424 72.1425L63.9942 85.1563Z" fill="white"/>
<path d="M25.4254 28.5215C25.4707 28.5668 25.516 28.6122 25.4707 28.6575C25.3801 28.8389 25.1988 29.111 24.9268 29.5191C24.6549 29.9272 24.5189 30.1992 24.383 30.3806C24.247 30.6073 24.1111 30.9247 23.9298 31.2421C23.7485 31.6049 23.6125 31.8316 23.5219 32.013C23.5219 32.0583 23.4765 32.0583 23.3859 32.013C23.3406 31.9676 23.2953 31.9223 23.3406 31.9223C23.5219 31.6502 23.5672 31.4235 23.6125 31.2421C23.6578 31.0608 23.5672 30.9701 23.4312 30.8794C23.2953 30.7887 22.978 30.7433 22.5248 30.698L19.6695 30.562L17.6754 34.0988L18.8537 35.6859C19.0803 35.9579 19.307 36.1846 19.5336 36.3207C19.8961 36.502 20.2134 36.5474 20.5306 36.4114C20.8479 36.2753 21.1198 35.9579 21.3464 35.5498C21.3918 35.5045 21.4371 35.5045 21.4824 35.5045C21.5277 35.5498 21.573 35.5952 21.5277 35.6405C21.4371 35.8219 21.2558 36.0486 21.0745 36.366C20.8479 36.7288 20.6666 37.0462 20.4853 37.3182C20.3494 37.5903 20.1681 37.9077 19.9868 38.2705C19.8508 38.5879 19.7149 38.8599 19.5789 39.0413C19.5336 39.0867 19.4882 39.0867 19.4429 39.0867C19.3976 39.0867 19.3523 38.996 19.3976 38.9506C19.5336 38.6786 19.6242 38.4065 19.6242 38.1798C19.6242 37.9531 19.5336 37.6357 19.3523 37.3182C19.171 37.0008 18.8991 36.5474 18.4912 36.0033L13.1885 28.8389C13.1885 28.7935 13.1885 28.7482 13.2339 28.7029C13.2792 28.6122 13.3245 28.6122 13.3245 28.6122L22.5248 29.111C23.4312 29.1563 24.0657 29.1563 24.4283 29.0656C24.8362 28.9749 25.0628 28.7935 25.2441 28.5668C25.3347 28.4761 25.3347 28.4761 25.4254 28.5215ZM17.4035 33.7361L19.2163 30.562L14.8654 30.3352L17.4035 33.7361Z" fill="white"/>
<path d="M30.0482 20.1327C30.0935 20.0874 30.0935 20.0874 30.1389 20.0874C30.1842 20.0874 30.1842 20.0874 30.1842 20.0874C30.728 20.7675 31.2266 21.357 31.7251 21.8104C31.7704 21.8558 31.8158 21.9465 31.8158 21.9918C31.8158 22.0372 31.7704 22.0825 31.7251 22.1732L26.6944 27.3878C26.6491 27.4331 26.6491 27.3878 26.6038 27.3424C26.5585 27.2971 26.5584 27.2517 26.5584 27.2517C26.8304 26.9797 27.0117 26.753 27.057 26.6169C27.1476 26.4355 27.1476 26.2995 27.057 26.1181C26.9663 25.9821 26.8304 25.7554 26.6038 25.5287L21.0292 20.1781C20.8026 19.9513 20.576 19.8153 20.44 19.7246C20.3041 19.6793 20.1228 19.6793 19.9415 19.77C19.7602 19.8606 19.5789 20.042 19.307 20.3141C19.2617 20.3594 19.2617 20.3141 19.2163 20.2687C19.171 20.2234 19.171 20.1781 19.171 20.1781L24.0204 15.0995C24.1111 15.0088 24.1564 15.0088 24.247 15.0995L25.8333 16.5959C25.8333 16.5959 25.8333 16.6412 25.788 16.6866C25.7427 16.7319 25.7427 16.7772 25.6973 16.7319C24.6096 16.0517 23.6125 16.1424 22.7061 17.0947L22.2529 17.5934C21.981 17.8655 21.845 18.1376 21.7997 18.3643C21.7997 18.591 21.8903 18.8177 22.1623 19.0444L24.6096 21.4023L25.7427 20.2234C26.6038 19.3619 26.7397 18.591 26.1052 18.0469C26.0599 18.0015 26.1052 18.0015 26.1506 17.9562C26.1959 17.9108 26.2412 17.9108 26.2412 17.9108L27.2836 18.9538L27.8728 19.4979C28.1447 19.7246 28.3713 19.906 28.5073 20.0874C28.5073 20.0874 28.5073 20.1327 28.462 20.1781C28.4166 20.2234 28.3713 20.2234 28.3713 20.2234C27.6915 19.5432 26.921 19.6793 26.0146 20.5862L24.9269 21.7198L27.6462 24.3497C27.9181 24.6218 28.1447 24.7125 28.326 24.7125C28.5073 24.7125 28.7339 24.5764 29.0058 24.3044L29.595 23.7149C30.6374 22.6266 30.7734 21.4477 30.0029 20.1327C30.0029 20.1781 30.0029 20.1327 30.0482 20.1327Z" fill="white"/>
<path d="M31.7705 12.6056C32.1331 12.7416 32.4957 12.8323 32.8583 12.8776C33.2208 12.923 33.7647 12.923 34.3539 12.8776C35.0337 12.8776 35.5776 12.8776 35.9854 12.8776C36.3933 12.923 36.8012 13.0137 37.2091 13.195C37.617 13.3764 37.9343 13.6938 38.2062 14.1019C38.5235 14.5554 38.6594 15.0995 38.6594 15.5983C38.6594 16.1424 38.5235 16.6412 38.2062 17.1853C37.889 17.6841 37.4357 18.1376 36.8919 18.5003C36.484 18.7724 36.0761 18.9538 35.5776 19.1351C35.079 19.3165 34.7164 19.4072 34.3992 19.3618C34.2632 19.3618 34.1726 19.3165 34.0819 19.1805L32.6316 17.1853C32.5863 17.14 32.6316 17.0946 32.677 17.0946C32.7223 17.0493 32.7676 17.0493 32.8129 17.0946C33.6287 17.6841 34.3992 18.0469 35.1243 18.2736C35.8495 18.5003 36.5293 18.4096 37.1185 18.0015C37.5264 17.7295 37.7983 17.412 37.889 17.004C38.0249 16.5959 37.889 16.1424 37.5717 15.6436C37.2998 15.2355 36.9825 14.9181 36.5746 14.7367C36.2121 14.5554 35.8042 14.4647 35.3963 14.4193C34.9884 14.374 34.4898 14.374 33.81 14.374C33.1755 14.374 32.677 14.374 32.2691 14.3286C31.9065 14.2833 31.4986 14.1926 31.136 14.0112C30.7735 13.8299 30.4562 13.5578 30.1843 13.1497C29.867 12.6509 29.7311 12.1521 29.7764 11.6533C29.8217 11.1546 30.003 10.6558 30.3202 10.2023C30.6375 9.74889 31.0454 9.38614 31.4986 9.06873C31.8159 8.84201 32.1331 8.66063 32.4957 8.5246C32.8583 8.38857 33.1755 8.29788 33.4474 8.20719C33.6287 8.16185 33.7647 8.20719 33.81 8.34322L35.1243 10.2023C35.1243 10.2477 35.1243 10.2477 35.079 10.293C35.0337 10.3384 34.9884 10.3384 34.9884 10.3384C34.4445 9.88492 33.8553 9.56751 33.2208 9.29545C32.5863 9.02338 31.9971 9.11407 31.3626 9.52217C30.9547 9.79423 30.6828 10.157 30.5922 10.5651C30.5015 10.9732 30.5922 11.3813 30.8641 11.7894C31.136 12.1975 31.4533 12.4695 31.7705 12.6056Z" fill="white"/>
<path d="M39.8831 5.75857C39.6112 6.3027 39.5205 7.02821 39.5659 7.88975C39.5659 7.88975 39.5659 7.93509 39.4752 7.93509C39.4299 7.93509 39.3846 7.93509 39.3846 7.93509C39.2939 7.527 39.1127 6.98287 38.9314 6.3027C38.7501 5.62254 38.6141 5.12376 38.4781 4.80635C38.4781 4.761 38.4781 4.71566 38.5235 4.71566C38.5688 4.71566 38.6141 4.71566 38.6594 4.761C38.7501 4.98772 39.0673 4.98772 39.6565 4.80635C40.5629 4.48894 41.6507 4.12619 42.829 3.71809C43.4635 3.49137 44.098 3.2193 44.7779 2.94724L45.8203 2.53914C46.2282 2.40311 46.5001 2.26708 46.6814 2.13104C46.8627 1.99501 46.908 1.85898 46.908 1.6776C46.908 1.63226 46.908 1.58691 46.9986 1.58691C47.0439 1.58691 47.0893 1.58691 47.0893 1.63226C47.1799 1.94967 47.3159 2.4938 47.5425 3.12861C47.7691 3.80878 47.9504 4.35291 48.0863 4.761C48.0863 4.80635 48.0863 4.80635 47.9957 4.85169C47.9504 4.85169 47.9051 4.85169 47.8597 4.85169C47.4518 4.08084 46.9986 3.58206 46.4548 3.35534C45.9109 3.12861 45.3217 3.12861 44.6872 3.35534C44.4153 3.44602 44.1887 3.58206 44.0527 3.67274C44.0527 3.71809 43.9621 3.85412 43.9621 4.0355C43.9621 4.17153 44.0074 4.39825 44.098 4.67032L46.7267 11.9254C46.8627 12.2428 46.9533 12.4695 47.0893 12.6055C47.2252 12.7416 47.3612 12.7869 47.5878 12.7869C47.8144 12.7869 48.0863 12.6962 48.4942 12.5602C48.5396 12.5602 48.5396 12.5602 48.5849 12.6509C48.6302 12.6962 48.5849 12.7416 48.5849 12.7416C48.2223 12.8776 47.9504 12.9683 47.7238 13.059L46.4094 13.5124L45.1858 13.9659C44.9591 14.0565 44.6872 14.1926 44.2793 14.3286C44.2793 14.3286 44.234 14.3286 44.234 14.2379C44.1887 14.1926 44.1887 14.1472 44.234 14.1472C44.6419 14.0112 44.9138 13.8752 45.0951 13.7391C45.2764 13.6031 45.367 13.4671 45.367 13.2857C45.367 13.1043 45.3217 12.8776 45.2311 12.5602L42.6024 5.1691C42.5118 4.89704 42.4211 4.71566 42.2852 4.57963C42.1945 4.48894 42.0586 4.39825 41.9226 4.39825C41.7866 4.39825 41.56 4.44359 41.2428 4.53428C40.6083 4.85169 40.1551 5.21444 39.8831 5.75857Z" fill="white"/>
<path d="M64.6287 10.3385C64.6287 10.3838 64.6287 10.4292 64.5834 10.4292C64.2208 10.4745 63.9036 10.4745 63.6769 10.4745L62.4533 10.5652L61.0483 10.7012C60.867 10.7466 60.5951 10.7466 60.2325 10.7919C60.1872 10.7919 60.1872 10.7466 60.1872 10.7012C60.1872 10.6559 60.1872 10.6105 60.2325 10.6105C60.6404 10.5652 60.9576 10.5198 61.1389 10.4745C61.3202 10.3838 61.4562 10.2931 61.5015 10.1117C61.5468 9.93036 61.5922 9.70364 61.5468 9.34089L61.2749 5.48664L55.5644 5.89474L55.8363 9.74899C55.8816 10.0664 55.9269 10.3385 55.9723 10.4745C56.0629 10.6105 56.1989 10.7466 56.3802 10.7919C56.5614 10.8372 56.8787 10.8372 57.3319 10.7919C57.3319 10.7919 57.3772 10.8372 57.3772 10.8826C57.3772 10.9279 57.3772 10.9733 57.3319 10.9733C56.9693 11.0186 56.6521 11.0186 56.4255 11.0186L55.0205 11.1093L53.7968 11.2C53.5702 11.2453 53.2983 11.2453 52.9357 11.2907C52.8904 11.2907 52.8904 11.2453 52.8904 11.2C52.8904 11.1547 52.8904 11.1093 52.9357 11.1093C53.3436 11.064 53.6155 11.0186 53.7968 10.9733C53.9781 10.8826 54.1141 10.7919 54.1594 10.6105C54.2047 10.4292 54.25 10.2024 54.2047 9.83968L53.6609 2.08583C53.6155 1.76842 53.5702 1.49636 53.5249 1.36032C53.4343 1.22429 53.2983 1.08826 53.117 1.04291C52.9357 0.997571 52.6185 0.997571 52.2559 0.997571C52.2559 0.997571 52.2106 0.952227 52.2106 0.906883C52.2106 0.861539 52.2106 0.816194 52.2559 0.816194L53.1623 0.77085C53.6609 0.77085 54.0688 0.725506 54.386 0.725506C54.7939 0.680162 55.2471 0.634818 55.791 0.589474L56.6974 0.498785C56.6974 0.498785 56.7427 0.54413 56.7427 0.589474C56.7427 0.634818 56.7427 0.680162 56.6974 0.680162C56.2895 0.725506 55.9723 0.77085 55.791 0.861539C55.6097 0.952227 55.4737 1.08826 55.4284 1.22429C55.3831 1.40567 55.3378 1.63239 55.3831 1.99514L55.6097 5.39595L61.3202 4.98785L61.0936 1.58704C61.0483 1.26964 61.003 0.997571 60.9576 0.861539C60.867 0.725506 60.731 0.589474 60.5498 0.54413C60.3685 0.498785 60.0512 0.498785 59.6433 0.498785C59.598 0.498785 59.598 0.453441 59.598 0.408097C59.598 0.362753 59.598 0.317409 59.6433 0.317409L60.4591 0.272065C61.003 0.272065 61.4562 0.226721 61.8641 0.226721C62.1813 0.226721 62.5892 0.181377 63.0878 0.0906883L63.9942 0C64.0395 0 64.0395 0.0453441 64.0395 0.0906883C64.0395 0.136032 64.0395 0.181377 63.9942 0.181377C63.5863 0.226721 63.3144 0.272065 63.1331 0.317409C62.9518 0.408097 62.8158 0.498785 62.7705 0.680162C62.7252 0.861539 62.6799 1.08826 62.7252 1.40567L63.2691 9.15952C63.3144 9.47692 63.3597 9.74899 63.405 9.88502C63.4957 10.0211 63.6316 10.1571 63.8129 10.2024C63.9942 10.2478 64.3114 10.2478 64.674 10.2024C64.5834 10.2478 64.6287 10.2931 64.6287 10.3385Z" fill="white"/>
<path d="M74.7355 9.65842C74.7808 9.65842 74.7808 9.65843 74.8261 9.70377C74.8715 9.70377 74.8715 9.74911 74.8715 9.74911C74.5995 10.5653 74.4182 11.2908 74.2823 12.0163C74.2823 12.107 74.237 12.1524 74.1916 12.1977C74.1463 12.243 74.101 12.243 73.965 12.1977L66.8495 10.8374C66.8042 10.8374 66.8042 10.792 66.8042 10.7467C66.8042 10.7013 66.8495 10.656 66.8948 10.656C67.2574 10.7467 67.5293 10.7467 67.7106 10.7467C67.8919 10.7467 68.0279 10.656 68.1185 10.4746C68.2092 10.3386 68.2998 10.0665 68.3451 9.74911L69.7954 2.1313C69.8408 1.81389 69.8861 1.54183 69.8408 1.40579C69.7954 1.22442 69.7048 1.13373 69.5688 0.997697C69.3875 0.907009 69.1609 0.81632 68.7984 0.770976C68.753 0.770976 68.753 0.725632 68.753 0.680288C68.753 0.634944 68.7984 0.5896 68.7984 0.5896L75.6419 1.90458C75.7326 1.90458 75.7779 1.99527 75.7779 2.08596L75.4153 4.21713C75.4153 4.21713 75.37 4.26247 75.3247 4.26247C75.2794 4.26247 75.234 4.26247 75.234 4.21713C75.234 2.90215 74.5542 2.1313 73.3305 1.90458L72.6507 1.76855C72.2428 1.67786 71.9709 1.7232 71.7896 1.81389C71.6083 1.90458 71.4723 2.1313 71.3817 2.49405L70.7472 5.84952L72.3334 6.16693C73.5571 6.39365 74.237 6.12158 74.3729 5.30539C74.3729 5.26004 74.4182 5.26004 74.4636 5.26004C74.5089 5.26004 74.5542 5.30539 74.5542 5.30539L74.2823 6.7564L74.1463 7.52725C74.101 7.89 74.0557 8.16207 74.0104 8.38879C74.0104 8.38879 73.965 8.43413 73.9197 8.38879C73.8744 8.38879 73.8291 8.34345 73.8291 8.34345C74.0103 7.39122 73.4665 6.80174 72.2428 6.57502L70.7019 6.25762L69.9767 9.97583C69.8861 10.3386 69.9314 10.6107 70.022 10.792C70.1127 10.9734 70.3393 11.0641 70.7019 11.1548L71.5177 11.2908C72.968 11.5629 74.0557 11.0641 74.7355 9.70377C74.6902 9.65843 74.6902 9.65842 74.7355 9.65842Z" fill="white"/>
<path d="M81.8056 4.85187C81.2164 5.03325 80.6725 5.48669 80.0834 6.16685C80.0834 6.16685 80.038 6.16685 79.9927 6.16685C79.9474 6.12151 79.9021 6.12151 79.9474 6.07616C80.174 5.71341 80.4459 5.21462 80.8085 4.62515C81.1258 4.03568 81.3977 3.58224 81.5337 3.26483C81.579 3.21948 81.579 3.21948 81.6696 3.21948C81.7149 3.26483 81.7603 3.26483 81.7149 3.35551C81.6243 3.58224 81.8509 3.80896 82.3948 4.08102C83.2559 4.53446 84.253 4.9879 85.4313 5.53203C86.0205 5.8041 86.655 6.07616 87.3348 6.39357L88.3772 6.84701C88.7398 7.02839 89.0571 7.11908 89.2384 7.16442C89.4196 7.20977 89.6009 7.16442 89.7369 7.02839C89.7822 6.98304 89.7822 6.98304 89.8729 7.02839C89.9182 7.07373 89.9182 7.07373 89.9182 7.11908C89.7369 7.43649 89.5103 7.88993 89.1477 8.52474C88.8305 9.15956 88.5585 9.65835 88.3772 10.0664C88.3772 10.1118 88.3319 10.1118 88.2866 10.0664C88.2413 10.0211 88.196 10.0211 88.196 9.97576C88.4679 9.15956 88.4679 8.4794 88.2866 7.93527C88.1053 7.39114 87.6521 6.98304 87.0176 6.66564C86.7457 6.5296 86.5191 6.48426 86.3378 6.43892C86.1565 6.43892 86.0658 6.48426 85.9299 6.57495C85.8392 6.66564 85.7033 6.89236 85.5673 7.16442L82.3494 14.0567C82.2135 14.3741 82.1228 14.6009 82.1228 14.7822C82.1228 14.9636 82.2135 15.0996 82.3494 15.2357C82.5307 15.3717 82.8027 15.5077 83.1652 15.7345C83.2106 15.7345 83.2106 15.7798 83.1652 15.8251C83.1199 15.8705 83.1199 15.9158 83.0746 15.9158C82.712 15.7345 82.4401 15.5984 82.2588 15.5077L81.0351 14.9183L79.8568 14.3741C79.6301 14.2834 79.3582 14.1474 78.9503 13.966C78.9503 13.966 78.9503 13.9207 78.9503 13.8754C78.9956 13.83 78.9956 13.7847 79.041 13.7847C79.4489 13.966 79.7208 14.0567 79.9474 14.1021C80.174 14.1474 80.31 14.1021 80.4459 13.966C80.5819 13.83 80.7179 13.6486 80.8538 13.3312L84.117 6.30288C84.253 6.03082 84.2983 5.84944 84.2983 5.66807C84.2983 5.53203 84.253 5.396 84.1623 5.25997C84.0717 5.16928 83.8451 5.03325 83.5731 4.89722C82.984 4.67049 82.3948 4.62515 81.8056 4.85187Z" fill="white"/>
<path d="M90.054 19.7247C90.0087 19.9061 90.054 20.0421 90.1446 20.1782C90.2353 20.3142 90.4619 20.4956 90.7791 20.7223C90.8245 20.7223 90.7791 20.7677 90.7791 20.813C90.7338 20.8583 90.6885 20.9037 90.6885 20.8583C90.4166 20.6316 90.19 20.4502 90.0087 20.3142L89.0116 19.5434L88.0145 18.8179C87.8332 18.6818 87.6066 18.5458 87.2894 18.3191C87.244 18.3191 87.2894 18.2737 87.2894 18.2284C87.3347 18.183 87.38 18.1377 87.38 18.183C87.6973 18.4098 87.9239 18.5458 88.1052 18.5911C88.2864 18.6365 88.4224 18.6365 88.6037 18.5458C88.785 18.4551 88.9209 18.2737 89.1476 18.0017L93.7704 11.7895C93.9517 11.5174 94.0876 11.2907 94.1329 11.1547C94.1783 10.9733 94.1329 10.8373 94.0423 10.6559C93.9517 10.5199 93.725 10.2932 93.4531 10.0664C93.4078 10.0664 93.4531 10.0211 93.4531 9.97575C93.4984 9.9304 93.5438 9.88506 93.5438 9.9304L94.2236 10.4745C94.5862 10.7919 94.9034 11.0187 95.1753 11.2C95.4473 11.4268 95.8098 11.6535 96.2177 11.9255L96.8976 12.4243C96.9429 12.4243 96.8976 12.4697 96.8976 12.515C96.8522 12.5604 96.8069 12.6057 96.8069 12.5604C96.4897 12.3336 96.2631 12.1976 96.0818 12.1523C95.9005 12.1069 95.7192 12.1069 95.5832 12.1976C95.4473 12.2883 95.266 12.4697 95.0847 12.7417L90.4619 18.9539C90.2353 19.362 90.0993 19.5887 90.054 19.7247Z" fill="white"/>
<path d="M106.551 22.8082C106.597 22.8989 106.597 22.9896 106.551 23.0349C106.551 23.0803 106.506 23.171 106.415 23.2617L104.874 24.8487C104.829 24.8487 104.829 24.8487 104.784 24.8487C104.738 24.8034 104.738 24.758 104.738 24.7127C105.237 23.8965 105.463 23.1256 105.463 22.3548C105.463 21.5839 105.146 20.9038 104.602 20.2689C104.059 19.6341 103.424 19.226 102.699 19.0447C101.974 18.8179 101.203 18.8179 100.387 19.09C99.5717 19.3167 98.8012 19.7702 98.0307 20.4503C97.2603 21.1305 96.7164 21.856 96.3992 22.6268C96.0366 23.443 95.9459 24.2139 96.0366 24.9847C96.1272 25.7556 96.4898 26.4811 97.0337 27.0706C97.5775 27.7054 98.1667 28.0681 98.8465 28.1588C99.5264 28.2949 100.342 28.2042 101.339 27.8868C101.385 27.8868 101.385 27.8868 101.43 27.9321C101.475 27.9775 101.475 28.0228 101.43 28.0228L99.753 29.2017C99.6623 29.2924 99.5717 29.3378 99.5264 29.3378C99.481 29.3378 99.4357 29.3378 99.2998 29.2924C98.348 28.7936 97.4869 28.1588 96.7164 27.2973C95.9459 26.3904 95.4021 25.4382 95.1302 24.4406C94.8582 23.443 94.8582 22.4455 95.1302 21.5386C95.4021 20.5864 95.9459 19.7702 96.7164 19.09C97.4869 18.4098 98.3933 18.0017 99.3904 17.8657C100.387 17.7297 101.339 17.8657 102.336 18.2738C103.288 18.6819 104.194 19.3167 104.965 20.2236C105.781 21.1758 106.325 22.0374 106.551 22.8082Z" fill="white"/>
<path d="M108.409 30.7434C108.228 31.0608 108.092 31.4235 108.047 31.7863C108.001 32.149 107.911 32.6478 107.866 33.2827C107.82 33.9628 107.73 34.5069 107.684 34.915C107.594 35.3231 107.458 35.7312 107.231 36.094C107.004 36.4567 106.687 36.7741 106.234 37.0009C105.735 37.2729 105.192 37.3636 104.693 37.3183C104.149 37.2729 103.651 37.0462 103.197 36.6835C102.744 36.3207 102.336 35.8219 102.019 35.2324C101.792 34.8244 101.656 34.3709 101.52 33.8721C101.385 33.3733 101.385 32.9652 101.385 32.6478C101.385 32.5118 101.475 32.4211 101.611 32.3304L103.832 31.0608C103.877 31.0608 103.923 31.0608 103.923 31.1061C103.923 31.1515 103.968 31.1968 103.923 31.2422C103.288 32.013 102.789 32.7385 102.472 33.4187C102.155 34.0988 102.2 34.779 102.518 35.4592C102.744 35.8673 103.016 36.1847 103.424 36.3661C103.787 36.5474 104.285 36.4567 104.829 36.1847C105.282 35.958 105.599 35.6859 105.826 35.3231C106.053 34.9604 106.189 34.5976 106.279 34.1895C106.37 33.7814 106.415 33.2827 106.506 32.6025C106.551 31.9677 106.642 31.4689 106.732 31.0608C106.823 30.698 106.959 30.3353 107.186 29.9725C107.412 29.6098 107.73 29.3377 108.137 29.111C108.636 28.8389 109.18 28.7482 109.678 28.8843C110.177 28.975 110.63 29.247 111.038 29.6098C111.446 29.9725 111.809 30.426 112.035 30.9248C112.216 31.2422 112.352 31.6049 112.443 31.9677C112.534 32.3304 112.624 32.6478 112.624 32.9652C112.624 33.1466 112.579 33.2827 112.443 33.328L110.449 34.4163C110.404 34.4163 110.404 34.4163 110.358 34.3709C110.313 34.3256 110.313 34.2802 110.358 34.2802C110.857 33.7814 111.265 33.2373 111.582 32.6478C111.899 32.0584 111.899 31.4235 111.537 30.7887C111.31 30.3353 110.993 30.0632 110.585 29.9272C110.177 29.7912 109.769 29.8365 109.316 30.0632C108.908 30.1539 108.591 30.3806 108.409 30.7434Z" fill="white"/>
<path d="M19.307 88.0584C19.307 88.1038 19.3524 88.1038 19.3524 88.1491C19.3524 88.1944 19.3524 88.1945 19.3524 88.1945C18.5819 88.5572 17.9021 88.92 17.3129 89.3281C17.2222 89.3734 17.1769 89.4187 17.1316 89.3734C17.0863 89.3734 17.0409 89.3281 16.9503 89.2374L13.0073 83.1613C13.0073 83.1159 13.0073 83.1159 13.0526 83.0706C13.098 83.0252 13.1433 83.0252 13.1433 83.0706C13.3699 83.388 13.5059 83.6147 13.6871 83.7054C13.8231 83.8414 14.0044 83.8414 14.1404 83.8414C14.3217 83.7961 14.5483 83.7054 14.8202 83.524L21.3012 79.307C21.5731 79.1256 21.7544 78.9443 21.8904 78.8082C21.981 78.6722 22.0263 78.4908 21.981 78.3094C21.9357 78.1281 21.7997 77.9013 21.6184 77.5839C21.6184 77.5386 21.6184 77.5386 21.6638 77.4932C21.7091 77.4479 21.7544 77.4479 21.7544 77.4932L25.5614 83.3426C25.6067 83.4333 25.6067 83.524 25.5161 83.5694L23.7032 84.7936C23.7032 84.7936 23.6579 84.7936 23.6126 84.7483C23.5673 84.703 23.5673 84.6576 23.5673 84.6576C24.4737 83.7507 24.6097 82.7532 23.8845 81.6649L23.5219 81.1208C23.2953 80.8034 23.0687 80.5766 22.8874 80.5313C22.6608 80.486 22.4342 80.5313 22.117 80.7127L19.2617 82.5718L20.1228 83.9321C20.8026 84.975 21.4825 85.2471 22.1623 84.7936C22.2076 84.7936 22.2076 84.7936 22.2529 84.839C22.2983 84.8843 22.2983 84.9297 22.2529 84.9297L21.0293 85.7005L20.3948 86.154C20.1228 86.3807 19.8509 86.5167 19.6696 86.6528C19.6696 86.6528 19.6243 86.6528 19.579 86.6074C19.5336 86.5621 19.5336 86.5167 19.5336 86.5167C20.3494 85.9726 20.3948 85.2017 19.7149 84.1588L18.8538 82.8438L15.6813 84.9297C15.364 85.1111 15.1828 85.3378 15.1374 85.5191C15.0921 85.7005 15.1828 85.9726 15.364 86.2447L15.8173 86.9248C16.6331 88.1944 17.7661 88.6025 19.1711 88.1491C19.2617 88.0131 19.2617 88.0131 19.307 88.0584Z" fill="white"/>
<path d="M26.2411 88.5118C26.1505 88.8746 26.1505 89.2373 26.1505 89.6454C26.1958 90.0082 26.2865 90.507 26.4224 91.1418C26.5584 91.8219 26.649 92.3207 26.6944 92.7742C26.7397 93.1823 26.6944 93.5904 26.6037 94.0438C26.5131 94.4519 26.2411 94.86 25.8786 95.2228C25.4707 95.6309 25.0175 95.8576 24.4736 95.9483C23.9297 96.039 23.3859 95.9936 22.842 95.7669C22.2982 95.5402 21.7543 95.1774 21.3011 94.6786C20.9838 94.3612 20.6666 93.9531 20.44 93.4997C20.168 93.0462 20.0321 92.6835 19.9868 92.3661C19.9868 92.23 19.9868 92.1394 20.1227 92.0033L21.8903 90.1896C21.9356 90.1442 21.9809 90.1442 21.9809 90.1896C22.0262 90.2349 22.0262 90.2802 22.0262 90.3256C21.6183 91.2325 21.3464 92.0487 21.2558 92.8195C21.1651 93.5904 21.3464 94.2252 21.8449 94.7693C22.1622 95.1321 22.5701 95.3134 22.978 95.3588C23.3859 95.4041 23.8391 95.2228 24.247 94.8147C24.6096 94.4973 24.8362 94.0892 24.9721 93.6811C25.1081 93.273 25.1081 92.8649 25.0628 92.4568C25.0175 92.0487 24.9268 91.5499 24.8362 90.9151C24.7002 90.2802 24.6549 89.7815 24.6096 89.4187C24.5642 89.056 24.6096 88.6479 24.7002 88.2398C24.7908 87.8317 25.0175 87.4689 25.38 87.1515C25.7879 86.7434 26.2865 86.5167 26.785 86.4713C27.2835 86.426 27.8274 86.5167 28.3259 86.7887C28.8245 87.0155 29.2777 87.3782 29.6856 87.7863C29.9575 88.0584 30.1841 88.3758 30.4107 88.6932C30.6373 89.0106 30.7733 89.328 30.8639 89.5547C30.9093 89.7361 30.9093 89.8721 30.8186 89.9628L29.187 91.5499C29.1417 91.5952 29.1417 91.5499 29.0964 91.5499C29.0511 91.5045 29.0511 91.4592 29.0511 91.4592C29.3683 90.8244 29.6403 90.1896 29.7762 89.5547C29.9122 88.9199 29.7309 88.2851 29.2324 87.741C28.8698 87.3782 28.5072 87.1968 28.0993 87.1968C27.6914 87.1968 27.2835 87.3329 26.921 87.6956C26.5131 87.7863 26.2865 88.1491 26.2411 88.5118Z" fill="white"/>
<path d="M32.8129 92.2752C32.2237 92.3659 31.5892 92.6833 30.9094 93.2728C30.9094 93.2728 30.8641 93.2728 30.8187 93.2274C30.7734 93.1821 30.7734 93.1821 30.7734 93.1368C31.0453 92.8193 31.4079 92.3659 31.8611 91.8218C32.3143 91.2776 32.6316 90.8695 32.8129 90.5975C32.8582 90.5521 32.9035 90.5521 32.9488 90.5975C32.9942 90.6428 32.9942 90.6882 32.9942 90.7335C32.8582 90.9149 33.0395 91.2323 33.538 91.5497C34.3085 92.1392 35.2149 92.774 36.3026 93.4995C36.8465 93.8623 37.4357 94.2704 38.0249 94.6785L38.9766 95.3133C39.3392 95.54 39.6111 95.7214 39.7924 95.7667C39.9737 95.8121 40.155 95.8121 40.2909 95.7214C40.3363 95.676 40.3816 95.676 40.4269 95.7214C40.4722 95.7667 40.4722 95.7667 40.4722 95.8121C40.2456 96.0841 39.9284 96.4922 39.4752 97.0363C39.0673 97.5805 38.7047 98.0793 38.4781 98.3967C38.4781 98.442 38.4328 98.442 38.3874 98.3967C38.3421 98.3513 38.2968 98.306 38.3421 98.306C38.75 97.5351 38.886 96.855 38.75 96.3108C38.6594 95.7214 38.2968 95.2679 37.7076 94.8598C37.4357 94.6785 37.2544 94.5878 37.0731 94.5424C36.9372 94.4971 36.8012 94.5424 36.6652 94.6331C36.5293 94.7238 36.3933 94.9052 36.212 95.1319L31.8158 101.48C31.6345 101.752 31.4986 101.979 31.4532 102.16C31.4079 102.342 31.4532 102.478 31.5892 102.659C31.7252 102.84 31.9518 103.022 32.3143 103.248C32.3597 103.248 32.3143 103.294 32.3143 103.339C32.269 103.385 32.2237 103.43 32.2237 103.385C31.9065 103.158 31.6345 102.976 31.4532 102.84L30.3202 102.07L29.2325 101.344C29.0512 101.208 28.7793 101.027 28.4167 100.8C28.4167 100.8 28.4167 100.755 28.462 100.709C28.5073 100.664 28.5073 100.619 28.5527 100.664C28.9152 100.891 29.1872 101.072 29.4138 101.163C29.595 101.253 29.7763 101.208 29.9576 101.117C30.0936 101.027 30.2749 100.845 30.4562 100.573L34.8524 94.1797C35.0336 93.9529 35.1243 93.7716 35.1243 93.5902C35.1696 93.4542 35.1243 93.3181 35.0336 93.1821C34.943 93.0461 34.7617 92.91 34.5351 92.7287C33.9912 92.3659 33.4474 92.1845 32.8129 92.2752Z" fill="white"/>
<path d="M48.9926 110.64C48.9926 110.685 48.9473 110.73 48.902 110.73C48.5394 110.594 48.2675 110.504 48.0409 110.413L46.9079 110.005L45.5482 109.551C45.3669 109.506 45.095 109.415 44.7777 109.279C44.7324 109.279 44.7324 109.234 44.7777 109.189C44.7777 109.143 44.8231 109.098 44.8684 109.098C45.2763 109.234 45.5482 109.325 45.7748 109.325C45.9561 109.325 46.1374 109.279 46.228 109.143C46.3187 109.007 46.4546 108.78 46.5906 108.463L47.8596 104.836L42.4663 102.931L41.1973 106.559C41.1067 106.876 41.016 107.103 41.0614 107.284C41.0614 107.465 41.152 107.602 41.3333 107.738C41.5146 107.874 41.7865 107.964 42.1944 108.146C42.1944 108.146 42.1944 108.191 42.1944 108.236C42.1491 108.282 42.1491 108.327 42.1491 108.327C41.7865 108.191 41.5146 108.1 41.3333 108.01L40.019 107.511L38.8406 107.103C38.6593 107.057 38.3421 106.967 37.9795 106.831C37.9795 106.831 37.9795 106.785 37.9795 106.74C37.9795 106.695 38.0248 106.649 38.0248 106.649C38.3874 106.785 38.7046 106.876 38.8859 106.876C39.0672 106.876 39.2485 106.831 39.3391 106.695C39.4751 106.559 39.5657 106.332 39.7017 106.014L42.285 98.714C42.3757 98.3966 42.4663 98.1699 42.421 97.9885C42.421 97.8072 42.3304 97.6711 42.1491 97.5351C41.9678 97.3991 41.7412 97.3084 41.3786 97.1723C41.3786 97.1723 41.3786 97.127 41.3786 97.0817C41.3786 97.0363 41.4239 96.991 41.4239 96.991L42.2397 97.3084C42.7383 97.4898 43.1008 97.6258 43.3728 97.7618C43.7353 97.8979 44.1886 98.0339 44.6871 98.1699L45.5482 98.442C45.5482 98.442 45.5482 98.4873 45.5482 98.5327C45.5482 98.578 45.5029 98.6234 45.5029 98.6234C45.095 98.4873 44.8231 98.3966 44.5965 98.3966C44.3698 98.3966 44.2339 98.442 44.0979 98.578C43.9619 98.714 43.8713 98.9408 43.7353 99.2582L42.6023 102.478L47.9956 104.382L49.1286 101.163C49.2193 100.845 49.3099 100.619 49.2646 100.437C49.2646 100.256 49.1739 100.12 48.9926 99.9837C48.8114 99.8477 48.5394 99.7116 48.1769 99.5756C48.1315 99.5756 48.1315 99.5302 48.1769 99.4849C48.1769 99.4396 48.2222 99.3942 48.2675 99.3942L49.038 99.6663C49.5365 99.8477 49.9897 100.029 50.3523 100.165C50.6242 100.256 51.0321 100.392 51.5307 100.528L52.3918 100.8C52.4371 100.8 52.4371 100.845 52.3918 100.891C52.3918 100.936 52.3465 100.981 52.3011 100.981C51.9386 100.845 51.6213 100.8 51.44 100.755C51.2587 100.755 51.0774 100.8 50.9868 100.936C50.8508 101.072 50.7602 101.299 50.6696 101.616L48.0862 108.916C47.9956 109.234 47.9049 109.461 47.9503 109.642C47.9503 109.823 48.0409 109.959 48.1769 110.095C48.3128 110.231 48.5848 110.322 48.9926 110.458C48.9926 110.504 49.038 110.549 48.9926 110.64Z" fill="white"/>
<path d="M60.5949 109.37C60.6403 109.37 60.6403 109.37 60.6856 109.415C60.7309 109.461 60.7309 109.461 60.7309 109.461C60.5496 110.277 60.4137 111.048 60.323 111.773C60.323 111.864 60.2777 111.909 60.2324 111.955C60.1871 112 60.1417 112 60.0058 112L52.7543 111.32C52.709 111.32 52.709 111.274 52.709 111.229C52.709 111.184 52.7543 111.138 52.7543 111.138C53.1169 111.184 53.3888 111.184 53.5701 111.138C53.7514 111.093 53.8873 111.002 53.9327 110.866C54.0233 110.73 54.0686 110.458 54.114 110.141L54.8391 102.432C54.8844 102.115 54.8844 101.843 54.8391 101.707C54.7938 101.525 54.7031 101.435 54.5218 101.344C54.3406 101.253 54.0686 101.208 53.7061 101.163C53.6607 101.163 53.6607 101.117 53.6607 101.072C53.6607 101.027 53.7061 100.981 53.7061 100.981L60.6403 101.616C60.7309 101.616 60.8216 101.662 60.7762 101.798L60.5949 103.974C60.5949 104.019 60.5496 104.019 60.5043 104.019C60.459 104.019 60.4137 104.019 60.4137 103.974C60.2777 102.704 59.5526 101.979 58.2835 101.843L57.6037 101.798C57.1958 101.752 56.9239 101.798 56.7426 101.934C56.5613 102.07 56.4707 102.296 56.4254 102.659L56.1081 106.06L57.6944 106.196C58.918 106.332 59.5526 105.969 59.6432 105.153C59.6432 105.108 59.6885 105.108 59.7338 105.108C59.7792 105.108 59.8245 105.153 59.8245 105.153L59.6885 106.604L59.6432 107.375C59.6432 107.738 59.5979 108.01 59.5979 108.236C59.5979 108.236 59.5526 108.282 59.5072 108.282C59.4619 108.282 59.4166 108.282 59.4166 108.236C59.5072 107.284 58.918 106.74 57.6944 106.604L56.1081 106.468L55.7455 110.232C55.7002 110.594 55.7455 110.866 55.8815 111.002C56.0175 111.138 56.2441 111.274 56.6066 111.274L57.4224 111.365C58.918 111.501 59.9151 110.866 60.459 109.461C60.5043 109.415 60.5496 109.37 60.5949 109.37ZM56.4707 100.256C56.4254 100.256 56.38 100.21 56.38 100.165C56.38 100.12 56.38 100.074 56.4254 100.074C56.7879 99.8931 57.3318 99.5757 58.0116 99.1676C58.5555 98.8048 58.8727 98.6234 58.918 98.6234C58.9634 98.5781 59.1447 98.6235 59.4619 98.7595C59.7338 98.8955 60.0058 98.9862 60.2324 99.1222C60.459 99.2583 60.5043 99.349 60.3683 99.349C59.6432 99.4396 59.0087 99.5757 58.4195 99.7117C57.785 99.8477 57.1505 100.029 56.4707 100.256Z" fill="white"/>
<path d="M64.0848 102.523C63.6769 102.976 63.4503 103.657 63.3143 104.518C63.3143 104.563 63.269 104.563 63.2237 104.563C63.1784 104.563 63.133 104.563 63.133 104.518C63.133 104.065 63.0877 103.521 63.0877 102.84C63.0424 102.16 63.0424 101.616 62.9971 101.299C62.9971 101.253 62.9971 101.208 63.0877 101.208C63.133 101.208 63.1784 101.208 63.1784 101.299C63.2237 101.525 63.5409 101.616 64.1754 101.571C65.1272 101.48 66.2602 101.389 67.5292 101.208C68.1637 101.117 68.8889 101.027 69.614 100.936L70.7471 100.8C71.155 100.755 71.4722 100.664 71.6535 100.618C71.8348 100.528 71.9708 100.392 71.9708 100.256C71.9708 100.21 72.0161 100.165 72.0614 100.165C72.1067 100.165 72.152 100.165 72.152 100.21C72.152 100.573 72.1974 101.072 72.2427 101.797C72.288 102.478 72.3333 103.067 72.3786 103.521C72.3786 103.566 72.3333 103.566 72.288 103.566C72.2427 103.566 72.1974 103.566 72.152 103.521C71.9254 102.659 71.6082 102.069 71.155 101.707C70.7017 101.344 70.1126 101.208 69.4327 101.299C69.1155 101.344 68.8889 101.389 68.7529 101.48C68.617 101.571 68.5263 101.661 68.481 101.797C68.4357 101.933 68.4357 102.16 68.481 102.478L69.3874 110.141C69.4327 110.503 69.4781 110.73 69.5687 110.866C69.6593 111.002 69.7953 111.093 70.0219 111.138C70.2485 111.184 70.5658 111.138 70.9737 111.093C71.019 111.093 71.019 111.138 71.019 111.184C71.019 111.229 71.019 111.274 70.9737 111.274C70.5658 111.32 70.2939 111.365 70.0672 111.365L68.7076 111.501L67.3933 111.682C67.1667 111.728 66.8494 111.773 66.4415 111.818C66.4415 111.818 66.3962 111.773 66.3962 111.728C66.3962 111.682 66.3962 111.637 66.3962 111.637C66.8494 111.592 67.1213 111.501 67.3479 111.456C67.5292 111.365 67.6652 111.229 67.7105 111.093C67.7558 110.912 67.7558 110.685 67.7105 110.322L66.8041 102.614C66.7588 102.342 66.7134 102.115 66.6228 101.979C66.5322 101.843 66.4415 101.752 66.3056 101.752C66.1696 101.707 65.943 101.707 65.6257 101.752C64.9912 101.797 64.4474 102.069 64.0848 102.523Z" fill="white"/>
<path d="M78.7236 108.735C78.8142 108.871 78.9502 108.917 79.1315 108.962C79.3128 108.962 79.5847 108.917 79.9473 108.826C79.9926 108.826 79.9926 108.826 80.0379 108.917C80.0379 108.962 80.0379 109.007 80.0379 109.007C79.6753 109.098 79.4034 109.189 79.2221 109.234L78.0438 109.551L76.9107 109.914C76.7294 110.005 76.4122 110.096 76.0949 110.186C76.0496 110.186 76.0496 110.186 76.0043 110.096C76.0043 110.05 76.0043 110.005 76.0043 110.005C76.3669 109.914 76.6388 109.778 76.7748 109.687C76.9107 109.597 77.0014 109.461 77.0467 109.279C77.0467 109.098 77.0467 108.871 76.9107 108.554L74.69 101.117C74.5993 100.8 74.5087 100.573 74.3727 100.437C74.2821 100.301 74.1008 100.256 73.9195 100.211C73.7382 100.211 73.4663 100.256 73.1037 100.347C73.0584 100.347 73.0584 100.347 73.0131 100.256C73.0131 100.211 73.0131 100.165 73.0131 100.165L73.8742 99.9385C74.3727 99.8025 74.7353 99.7118 75.0525 99.6211C75.3698 99.5304 75.7777 99.3944 76.2309 99.213L77.0467 98.9409C77.092 98.9409 77.092 98.9409 77.1373 99.0316C77.1373 99.0769 77.1373 99.1223 77.1373 99.1223C76.7748 99.213 76.5481 99.349 76.3669 99.4397C76.2309 99.5757 76.1403 99.7118 76.1403 99.8478C76.1403 100.029 76.1856 100.256 76.2762 100.573L78.497 107.964C78.497 108.372 78.6329 108.599 78.7236 108.735Z" fill="white"/>
<path d="M105.599 99.8931C105.645 99.9384 105.645 99.9838 105.645 99.9838C105.282 100.437 104.784 100.936 104.194 101.435C103.605 101.934 102.744 102.478 101.702 103.067C97.8493 105.108 93.0905 106.105 87.38 106.06C86.5189 106.377 85.7031 106.468 84.842 106.332C83.9809 106.196 83.2558 105.879 82.5306 105.38C81.8508 104.881 81.3069 104.201 80.8537 103.43C80.3098 102.432 80.0832 101.389 80.2192 100.392C80.3552 99.3943 80.7177 98.4874 81.3069 97.7166C81.8961 96.9457 82.6213 96.3109 83.4824 95.8575C84.4341 95.3587 85.3405 95.132 86.2923 95.1773C87.2441 95.2226 88.1052 95.5401 88.8303 96.0388C89.6008 96.5376 90.19 97.2178 90.6432 98.034C91.0058 98.7595 91.2324 99.485 91.2777 100.256C91.323 101.027 91.187 101.798 90.9151 102.523C90.6432 103.249 90.19 103.929 89.6461 104.518C90.8245 104.654 92.2294 104.609 93.7704 104.428C95.3113 104.246 96.8522 103.929 98.4385 103.521C100.025 103.113 101.339 102.568 102.517 101.934C103.877 101.208 104.874 100.528 105.554 99.8477C105.509 99.8024 105.554 99.8477 105.599 99.8931ZM83.9809 104.291C84.706 104.881 85.4312 105.244 86.2017 105.38C86.9721 105.516 87.6973 105.38 88.3771 105.017C88.9663 104.7 89.4195 104.246 89.6914 103.702C89.9634 103.158 90.0993 102.478 90.054 101.707C90.0087 100.936 89.7367 100.12 89.2835 99.2583C88.785 98.3514 88.1958 97.6259 87.516 97.0818C86.8362 96.5376 86.111 96.1749 85.3406 96.0842C84.5701 95.9935 83.7996 96.1295 83.0745 96.5376C82.1227 97.0364 81.5789 97.8073 81.3976 98.7595C81.2163 99.7117 81.4882 100.8 82.1227 102.024C82.6666 102.931 83.3011 103.702 83.9809 104.291Z" fill="white"/>
<path d="M96.3538 86.9701C95.9459 86.9248 95.538 87.0608 95.2208 87.4235C95.2208 87.4235 95.1754 87.4235 95.1301 87.3782C95.0848 87.3329 95.0848 87.2875 95.0848 87.2875L95.6287 86.7434C95.9459 86.4713 96.2179 86.2446 96.3538 86.0632C96.4898 85.9272 96.7164 85.7005 96.9883 85.4284L97.4869 84.8843C97.4869 84.8843 97.5322 84.8843 97.5775 84.9296C97.6228 84.975 97.6228 85.0203 97.6228 85.0203C97.3056 85.3377 97.1696 85.6551 97.2149 86.0632C97.2602 86.4713 97.4869 86.8794 97.8947 87.2875L101.158 90.643C101.702 91.2324 102.064 91.8219 102.246 92.5021C102.427 93.1822 102.382 93.8171 102.155 94.4972C101.928 95.1774 101.52 95.7669 100.931 96.3563C100.342 96.9005 99.7076 97.3086 99.0278 97.5353C98.348 97.762 97.6681 97.762 96.9883 97.5806C96.3085 97.3992 95.7193 96.9912 95.1301 96.447L91.3684 92.5474C91.1418 92.3207 90.9605 92.1393 90.7793 92.094C90.6433 92.0486 90.462 92.0486 90.2807 92.094C90.0994 92.1847 89.9181 92.3207 89.6462 92.5928C89.6009 92.6381 89.6009 92.5928 89.5556 92.5474C89.5103 92.5021 89.5103 92.4567 89.5103 92.4567L90.1448 91.8673C90.5073 91.5499 90.8246 91.2778 91.0059 91.0511C91.2325 90.8244 91.5497 90.5069 91.867 90.1895L92.4562 89.6001C92.5015 89.6001 92.5015 89.6001 92.5468 89.6454C92.5921 89.6908 92.5921 89.7361 92.5921 89.7361C92.3202 90.0082 92.1389 90.1895 92.0936 90.3709C92.0483 90.5523 92.0029 90.6883 92.0936 90.8697C92.1842 91.0511 92.3202 91.2325 92.5468 91.4592L95.8553 94.9053C96.7617 95.8576 97.6681 96.4017 98.5292 96.4924C99.3904 96.5831 100.161 96.2656 100.886 95.5855C101.566 94.9053 101.883 94.1798 101.883 93.409C101.883 92.5928 101.475 91.8219 100.75 91.0511L97.4869 87.6503C97.1696 87.2422 96.7617 87.0155 96.3538 86.9701Z" fill="white"/>
<path d="M108.681 81.8915C108.681 81.8462 108.727 81.8462 108.772 81.8462C108.817 81.8462 108.817 81.8462 108.817 81.8462C109.452 82.3903 110.086 82.8891 110.675 83.2518C110.766 83.2972 110.811 83.3425 110.811 83.3878C110.811 83.4332 110.811 83.5239 110.766 83.5692L106.823 89.6453C106.823 89.6907 106.778 89.6907 106.732 89.6453C106.687 89.6 106.642 89.5547 106.687 89.5547C106.914 89.2372 107.004 89.0105 107.05 88.8291C107.095 88.6478 107.05 88.5117 106.959 88.3757C106.868 88.2397 106.687 88.0583 106.37 87.8769L99.8888 83.6599C99.6169 83.4785 99.3903 83.3879 99.209 83.3425C99.0277 83.2972 98.8918 83.3425 98.7558 83.4785C98.6198 83.6146 98.4385 83.7959 98.2119 84.1134C98.2119 84.1587 98.1666 84.1587 98.1213 84.1134C98.076 84.068 98.0306 84.0227 98.076 84.0227L101.883 78.1733C101.928 78.0826 102.019 78.0826 102.11 78.1279L103.968 79.3069C103.968 79.3069 103.968 79.3522 103.968 79.3976C103.922 79.4429 103.922 79.4883 103.877 79.4883C102.653 79.0348 101.702 79.3069 101.022 80.3951L100.659 80.9393C100.433 81.2567 100.342 81.5741 100.387 81.7555C100.433 81.9822 100.569 82.1636 100.886 82.3903L103.741 84.2494L104.602 82.8891C105.282 81.8462 105.237 81.1206 104.557 80.6672C104.512 80.6672 104.512 80.6219 104.557 80.5765C104.602 80.5312 104.602 80.4858 104.648 80.5312L105.871 81.3474L106.551 81.7555C106.868 81.9368 107.095 82.0729 107.322 82.2089C107.322 82.2089 107.322 82.2542 107.276 82.2996C107.231 82.3449 107.231 82.3903 107.186 82.3449C106.37 81.8008 105.645 82.0729 104.965 83.1158L104.104 84.4308L107.276 86.5166C107.594 86.698 107.82 86.7887 108.047 86.7433C108.228 86.698 108.455 86.5166 108.636 86.2445L109.089 85.5644C109.905 84.2947 109.814 83.1158 108.817 81.9822C108.636 81.9368 108.636 81.9368 108.681 81.8915Z" fill="white"/>
</svg>
