<svg width="108" height="108" viewBox="0 0 108 108" fill="none" xmlns="http://www.w3.org/2000/svg">
<g filter="url(#filter0_d_124_2)">
<circle cx="54" cy="50" r="50" fill="#F5F5F5" fill-opacity="0.71" shape-rendering="crispEdges"/>
</g>
<path d="M55.3633 47.2534C55.0025 47.2534 54.71 47.5459 54.71 47.9068V70.4859C54.71 70.8468 55.0025 71.1393 55.3633 71.1393C55.725 71.1393 56.0175 70.8468 56.0175 70.4859V47.9068C56.0175 47.5451 55.725 47.2534 55.3633 47.2534Z" fill="black"/>
<path d="M55.3633 39.4224C60.5867 39.4224 64.8358 35.1766 64.8358 29.9591C64.8358 24.7416 60.5867 20.4966 55.3633 20.4966C50.1408 20.4966 45.8908 24.7416 45.8908 29.9591C45.8908 35.1766 50.1408 39.4224 55.3633 39.4224ZM55.3633 21.8032C59.8642 21.8032 63.5283 25.4616 63.5283 29.9591C63.5283 34.4566 59.8642 38.1157 55.3633 38.1157C50.8617 38.1157 47.1992 34.4566 47.1992 29.9591C47.1992 25.4616 50.8617 21.8032 55.3633 21.8032Z" fill="black"/>
<path d="M80.5683 50.7117V43.9617C80.5683 42.1609 79.1025 40.6951 77.2992 40.6951H61.6067C59.4567 40.6951 57.3633 41.4542 55.7142 42.8342C55.5125 43.0051 55.2158 43.0042 55.0117 42.8342C53.3625 41.4542 51.27 40.6951 49.1183 40.6951H33.43C31.6258 40.6951 30.16 42.1609 30.16 43.9617V50.7117C28.2108 51.0659 26.7133 52.9567 26.7133 55.2459C26.7133 57.5351 28.2125 59.4259 30.16 59.7801V69.8967C30.16 71.6959 31.6258 73.1634 33.43 73.1634H49.1183C50.9625 73.1634 52.7567 73.8126 54.1725 74.9951C54.5175 75.2842 54.94 75.4276 55.3633 75.4276C55.7858 75.4276 56.2083 75.2842 56.5525 74.9951C57.9692 73.8126 59.7625 73.1634 61.6067 73.1634H77.295C79.0983 73.1634 80.565 71.6959 80.565 69.8967V59.7801C82.5125 59.4259 84.0117 57.5351 84.0117 55.2459C84.0117 52.9567 82.5167 51.0676 80.5683 50.7117ZM28.0225 55.2459C28.0225 53.4251 29.2758 51.9459 30.815 51.9459C32.3558 51.9459 33.6092 53.4276 33.6092 55.2459C33.6092 57.0676 32.3558 58.5484 30.815 58.5484C29.2758 58.5509 28.0225 57.0676 28.0225 55.2459ZM77.2992 71.8567H61.6067C59.4567 71.8567 57.3658 72.6142 55.7142 73.9926C55.5125 74.1642 55.2133 74.1642 55.0117 73.9926C53.3625 72.6142 51.27 71.8567 49.1183 71.8567H33.43C32.3483 71.8567 31.4675 70.9759 31.4675 69.8967V59.7826C33.4183 59.4276 34.9158 57.5367 34.9158 55.2459C34.9158 52.9559 33.4183 51.0676 31.4675 50.7109V43.9601C31.4675 42.8801 32.3483 42.0001 33.43 42.0001H49.1183C50.9625 42.0001 52.7567 42.6526 54.1725 43.8351C54.86 44.4101 55.8633 44.4126 56.5542 43.8351C57.9675 42.6526 59.7625 42.0017 61.6067 42.0017H77.295C78.375 42.0017 79.2567 42.8809 79.2567 43.9617V50.7117C77.305 51.0659 75.8075 52.9567 75.8075 55.2476C75.8075 57.5392 77.305 59.4276 79.2567 59.7826V69.8967C79.2608 70.9759 78.3792 71.8567 77.2992 71.8567ZM79.915 58.5509C78.3725 58.5509 77.1192 57.0676 77.1192 55.2484C77.1192 53.4301 78.3725 51.9467 79.915 51.9467C81.4533 51.9467 82.7075 53.4301 82.7075 55.2484C82.7075 57.0676 81.4517 58.5509 79.915 58.5509Z" fill="black"/>
<defs>
<filter id="filter0_d_124_2" x="0" y="0" width="108" height="108" filterUnits="userSpaceOnUse" color-interpolation-filters="sRGB">
<feFlood flood-opacity="0" result="BackgroundImageFix"/>
<feColorMatrix in="SourceAlpha" type="matrix" values="0 0 0 0 0 0 0 0 0 0 0 0 0 0 0 0 0 0 127 0" result="hardAlpha"/>
<feOffset dy="4"/>
<feGaussianBlur stdDeviation="2"/>
<feComposite in2="hardAlpha" operator="out"/>
<feColorMatrix type="matrix" values="0 0 0 0 0.85098 0 0 0 0 0.85098 0 0 0 0 0.85098 0 0 0 0.75 0"/>
<feBlend mode="normal" in2="BackgroundImageFix" result="effect1_dropShadow_124_2"/>
<feBlend mode="normal" in="SourceGraphic" in2="effect1_dropShadow_124_2" result="shape"/>
</filter>
</defs>
</svg>
