<svg width="108" height="108" viewBox="0 0 108 108" fill="none" xmlns="http://www.w3.org/2000/svg">
<g filter="url(#filter0_d_124_174)">
<circle cx="54" cy="50" r="50" fill="#F5F5F5" fill-opacity="0.71" shape-rendering="crispEdges"/>
</g>
<path d="M73.9787 66.3567C73.0137 66.3567 71.997 66.2726 70.922 66.0884C70.567 66.0267 70.3295 65.6901 70.3904 65.3351C70.452 64.9801 70.7862 64.7426 71.1437 64.8034C79.2729 66.1984 83.9279 61.3401 85.4579 59.3551C79.2645 58.1034 77.2012 52.8542 76.1854 48.9259C76.0954 48.5759 76.3054 48.2209 76.652 48.1292C77.002 48.0392 77.357 48.2492 77.4462 48.5992C79.0195 54.6809 81.8645 57.6517 86.6629 58.2284C86.8829 58.2542 87.0712 58.3892 87.1687 58.5834C87.2679 58.7801 87.2579 59.0126 87.1479 59.2042C87.102 59.2834 82.8629 66.3567 73.9787 66.3567Z" fill="#131212"/>
<path d="M35.1219 66.3566C26.2344 66.3566 21.9978 59.2833 21.9519 59.2041C21.8419 59.0124 21.8319 58.7799 21.9319 58.5833C22.0286 58.3891 22.2203 58.2541 22.4369 58.2283C30.7419 57.2274 31.8244 49.2524 32.9711 40.8108C33.5153 36.8208 34.0744 32.6983 35.4994 29.5124C38.6686 22.4299 45.9694 18.0308 54.5528 18.0308C63.1328 18.0308 70.4311 22.4299 73.6003 29.5124C74.9461 32.5241 75.4728 36.3766 76.0269 40.4558C76.1011 41.0049 76.1769 41.5541 76.2536 42.1033C76.3028 42.4608 76.0544 42.7899 75.6969 42.8416C75.3394 42.8899 75.0128 42.6416 74.9619 42.2841C74.8853 41.7349 74.8086 41.1833 74.7344 40.6316C74.1928 36.6499 73.6794 32.8841 72.4103 30.0441C69.4536 23.4383 62.6119 19.3341 54.5528 19.3341C46.4903 19.3341 39.6469 23.4383 36.6894 30.0441C35.3411 33.0583 34.8203 36.9099 34.2636 40.9866C33.1453 49.2191 31.9911 57.7199 23.6353 59.3599C25.1444 61.3599 29.7336 66.2133 37.9561 64.8033C38.3136 64.7424 38.6486 64.9799 38.7094 65.3349C38.7711 65.6899 38.5336 66.0266 38.1786 66.0883C37.1061 66.2724 36.0869 66.3566 35.1219 66.3566Z" fill="#131212"/>
<path d="M42.7752 62.63C42.5194 62.63 42.2769 62.4767 42.1719 62.2258C39.5444 55.8608 38.9594 47.7867 38.8294 44.6117C38.661 40.4175 40.8469 36.6442 44.5419 34.7617C48.9344 32.5217 54.2744 33.3342 58.8252 36.9333C59.1852 37.2167 59.6085 37.5867 60.1019 38.0158C61.2127 38.9817 62.7294 40.305 64.4585 41.4492C64.7594 41.6483 64.841 42.0517 64.6419 42.3533C64.4427 42.655 64.0394 42.7367 63.7385 42.5375C61.9377 41.3442 60.3827 39.9883 59.246 39C58.766 38.5808 58.3527 38.2208 58.0177 37.9575C53.876 34.6825 49.0594 33.9217 45.1319 35.9242C41.8502 37.5975 39.981 40.8233 40.1344 44.5575C40.2594 47.6642 40.8294 55.5567 43.3777 61.7283C43.5152 62.06 43.3569 62.4433 43.0227 62.5783C42.9435 62.6142 42.8569 62.63 42.7752 62.63Z" fill="#131212"/>
<path d="M54.5344 71.705C53.5977 71.705 52.6577 71.5925 51.7435 71.3683C51.391 71.2808 51.1794 70.9283 51.2635 70.5783C51.3477 70.2316 51.7027 70.0141 52.0502 70.1008C52.8644 70.3 53.7019 70.4 54.5344 70.4C58.2761 70.4 61.8436 68.3516 64.0752 64.9208C65.5619 62.6375 66.6594 60.3 67.4286 57.7766C67.5327 57.4316 67.8986 57.2375 68.2427 57.3425C68.5852 57.4466 68.7794 57.8125 68.6744 58.1566C67.8702 60.8008 66.7211 63.245 65.1686 65.6333C62.6936 69.4341 58.7202 71.705 54.5344 71.705Z" fill="#131212"/>
<path d="M63.8736 45.8326L67.4261 47.7768C67.5611 47.8476 67.6661 47.9676 67.7219 48.1109L69.6269 53.0201L71.5344 48.1109C71.5911 47.9676 71.6953 47.8476 71.8311 47.7768L75.3828 45.8326L71.8311 43.8884C71.6903 43.8118 71.5861 43.6893 71.5319 43.5434L69.6269 38.4068L67.7244 43.5434C67.6711 43.6893 67.5636 43.8118 67.4261 43.8884L63.8736 45.8326ZM69.6269 55.4751C69.3586 55.4751 69.1161 55.3092 69.0194 55.0584L66.5911 48.8059L62.2011 46.4051C61.9919 46.2901 61.8611 46.0701 61.8611 45.8326C61.8611 45.5926 61.9919 45.3726 62.2011 45.2601L66.5853 42.8618L69.0169 36.3026C69.1111 36.0468 69.3561 35.8784 69.6269 35.8784C69.9003 35.8784 70.1428 36.0468 70.2378 36.3026L72.6711 42.8618L77.0536 45.2601C77.2628 45.3726 77.3928 45.5926 77.3928 45.8326C77.3928 46.0701 77.2628 46.2901 77.0536 46.4051L72.6661 48.8059L70.2353 55.0584C70.1378 55.3092 69.8953 55.4751 69.6269 55.4751Z" fill="#131212"/>
<path d="M41.876 67.6616L44.5085 69.1024C44.6419 69.1766 44.7485 69.2941 44.8027 69.4366L46.2069 73.0516L47.6119 69.4366C47.6652 69.2941 47.7702 69.1766 47.9052 69.1024L50.5385 67.6616L47.9052 66.2208C47.7677 66.1466 47.6602 66.0241 47.6069 65.8758L46.2069 62.0983L44.8052 65.8758C44.7519 66.0241 44.6469 66.1466 44.5085 66.2208L41.876 67.6616ZM46.2069 75.5033C45.9385 75.5033 45.696 75.3399 45.5994 75.0899L43.6735 70.1316L40.2035 68.2341C39.9935 68.1191 39.8635 67.8991 39.8635 67.6616C39.8635 67.4241 39.9935 67.2041 40.2035 67.0891L43.6685 65.1941L45.5944 59.9933C45.691 59.7408 45.9335 59.5691 46.2069 59.5691C46.4802 59.5691 46.7227 59.7408 46.8177 59.9933L48.7452 65.1941L52.2085 67.0891C52.4177 67.2041 52.5477 67.4241 52.5477 67.6616C52.5477 67.8991 52.4177 68.1191 52.2085 68.2341L48.7402 70.1316L46.8152 75.0899C46.7177 75.3399 46.4752 75.5033 46.2069 75.5033Z" fill="#131212"/>
<path d="M62.0952 63.7408L62.1594 63.6775L66.6119 68.0625L66.481 68.1933L62.0952 63.7408Z" fill="#A286DD"/>
<path d="M62.2562 63.9016L62.3204 63.8383L62.1596 63.6775L61.9996 63.8391L66.4529 68.225L66.6121 68.0625L66.4512 67.9025L66.3204 68.0333L66.4812 68.1933L66.6429 68.0341L62.2579 63.5816C62.2362 63.56 62.2121 63.5433 62.1846 63.5316C62.1562 63.52 62.1279 63.5141 62.0971 63.5133C62.0671 63.5133 62.0379 63.5191 62.0104 63.53C61.9821 63.5416 61.9579 63.5575 61.9362 63.5791C61.9146 63.6 61.8979 63.625 61.8862 63.6525C61.8746 63.68 61.8687 63.7091 61.8687 63.7391C61.8679 63.7691 61.8737 63.7983 61.8854 63.8266C61.8962 63.8541 61.9129 63.8791 61.9337 63.9L66.3196 68.3533L66.3204 68.3541C66.3421 68.3758 66.3662 68.3925 66.3946 68.4033C66.4221 68.415 66.4512 68.4208 66.4812 68.4208C66.5112 68.4208 66.5404 68.415 66.5679 68.4033C66.5962 68.3925 66.6204 68.3758 66.6421 68.3541L66.7729 68.2233L66.7737 68.2225C66.7954 68.2008 66.8112 68.1758 66.8229 68.1483C66.8337 68.12 66.8396 68.0908 66.8396 68.0608C66.8387 68.0308 66.8329 68.0016 66.8212 67.9741C66.8096 67.9466 66.7929 67.9216 66.7712 67.9008L62.3187 63.5158C62.2971 63.4941 62.2729 63.4783 62.2454 63.4666C62.2171 63.4558 62.1887 63.45 62.1587 63.45C62.1287 63.45 62.0996 63.4558 62.0721 63.4675C62.0446 63.4791 62.0196 63.4958 61.9987 63.5166L61.9354 63.58C61.9137 63.6016 61.8971 63.6258 61.8854 63.6541C61.8746 63.6816 61.8687 63.7108 61.8687 63.7408C61.8687 63.7708 61.8746 63.8 61.8854 63.8275C61.8971 63.8558 61.9137 63.88 61.9354 63.9016C61.9562 63.9233 61.9812 63.9391 62.0087 63.9508C62.0362 63.9625 62.0654 63.9683 62.0954 63.9683C62.1262 63.9683 62.1546 63.9625 62.1829 63.9508C62.2104 63.9391 62.2354 63.9233 62.2562 63.9016Z" fill="#231F1F"/>
<path d="M65.9902 68.5909L67.0094 67.5718L68.8377 69.4001L67.8177 70.4201L65.9902 68.5909Z" fill="#A286DD"/>
<path d="M66.151 68.7516L67.1694 67.7325L67.0094 67.5716L66.8485 67.7325L68.6769 69.5608L68.8377 69.4L68.6769 69.2391L67.6577 70.2591L67.8177 70.42L67.9785 70.2591L66.151 68.43C66.1294 68.4091 66.1052 68.3925 66.0769 68.3808C66.0494 68.3691 66.0202 68.3633 65.9902 68.3633C65.9602 68.3633 65.931 68.3691 65.9035 68.3808C65.8752 68.3925 65.851 68.4091 65.8294 68.43C65.8085 68.4516 65.7919 68.4758 65.7802 68.5041C65.7685 68.5316 65.7627 68.5608 65.7627 68.5908C65.7627 68.6208 65.7685 68.65 65.7802 68.6775C65.7919 68.7058 65.8085 68.73 65.8294 68.7516L67.6577 70.58C67.6785 70.6016 67.7035 70.6183 67.731 70.6291C67.7585 70.6408 67.7877 70.6466 67.8177 70.6466C67.8485 70.6466 67.8769 70.6408 67.9052 70.6291C67.9327 70.6183 67.9577 70.6016 67.9785 70.58L68.9985 69.5608C69.0202 69.5391 69.036 69.5141 69.0477 69.4866C69.0594 69.4591 69.0652 69.43 69.0652 69.4C69.0652 69.37 69.0594 69.3408 69.0477 69.3125C69.036 69.285 69.0194 69.2608 68.9985 69.2391L67.1694 67.4116C67.1485 67.39 67.1235 67.3733 67.096 67.3616C67.0685 67.3508 67.0394 67.345 67.0094 67.345C66.9785 67.345 66.9502 67.3508 66.9219 67.3616C66.8944 67.3733 66.8694 67.39 66.8485 67.4116L65.8294 68.43C65.8085 68.4516 65.7919 68.4758 65.7802 68.5041C65.7685 68.5316 65.7627 68.5608 65.7627 68.5908C65.7627 68.6208 65.7685 68.65 65.7802 68.6775C65.7919 68.7058 65.8085 68.73 65.8294 68.7516C65.851 68.7725 65.8752 68.7891 65.9035 68.8008C65.931 68.8125 65.9602 68.8183 65.9902 68.8183C66.0202 68.8183 66.0494 68.8125 66.0769 68.8008C66.1052 68.7891 66.1294 68.7725 66.151 68.7516Z" fill="#231F1F"/>
<path d="M66.0119 69.4099L67.8277 67.5941C68.0127 67.4091 68.3119 67.4091 68.4952 67.5941L76.8627 75.9616C77.0469 76.1449 77.0469 76.4441 76.8627 76.6282L75.0469 78.4441C74.8619 78.6282 74.5627 78.6282 74.3794 78.4441L66.0119 70.0766C65.8277 69.8932 65.8277 69.5941 66.0119 69.4099Z" fill="#A286DD"/>
<path d="M76.7212 76.1433C76.7596 76.1908 76.7771 76.2458 76.7737 76.3074C76.7704 76.3699 76.7462 76.4233 76.7021 76.4674L74.8862 78.2833C74.8387 78.3308 74.7804 78.3549 74.7129 78.3549C74.6454 78.3549 74.5879 78.3308 74.5404 78.2833L67.6096 71.3524C67.5879 71.3316 67.5637 71.3149 67.5354 71.3033C67.5079 71.2916 67.4787 71.2858 67.4487 71.2858C67.4187 71.2858 67.3896 71.2916 67.3612 71.3033C67.3337 71.3149 67.3096 71.3316 67.2879 71.3524C67.2662 71.3741 67.2504 71.3983 67.2387 71.4266C67.2271 71.4541 67.2212 71.4833 67.2212 71.5133C67.2212 71.5433 67.2271 71.5724 67.2387 71.5999C67.2504 71.6283 67.2662 71.6524 67.2879 71.6741L74.2187 78.6049C74.3554 78.7416 74.5196 78.8091 74.7129 78.8091C74.9054 78.8091 75.0704 78.7416 75.2079 78.6049L77.0237 76.7891C77.1496 76.6624 77.2179 76.5099 77.2271 76.3316C77.2371 76.1549 77.1862 75.9974 77.0762 75.8591C77.0571 75.8358 77.0346 75.8166 77.0087 75.8024C76.9821 75.7874 76.9537 75.7791 76.9237 75.7758C76.8937 75.7724 76.8646 75.7749 76.8354 75.7833C76.8062 75.7916 76.7804 75.8049 76.7571 75.8241C76.7329 75.8424 76.7146 75.8649 76.6996 75.8916C76.6854 75.9183 76.6762 75.9458 76.6729 75.9758C76.6696 76.0058 76.6721 76.0358 76.6804 76.0641C76.6887 76.0933 76.7021 76.1199 76.7212 76.1433ZM66.6204 70.3641L66.1729 69.9166C66.1254 69.8683 66.1012 69.8108 66.1012 69.7433C66.1012 69.6758 66.1254 69.6183 66.1729 69.5708L67.9887 67.7541C68.0371 67.7066 68.0946 67.6824 68.1621 67.6824C68.2296 67.6824 68.2871 67.7066 68.3346 67.7541L75.7512 75.1708C75.7721 75.1924 75.7971 75.2083 75.8246 75.2199C75.8529 75.2316 75.8812 75.2374 75.9121 75.2374C75.9421 75.2374 75.9712 75.2316 75.9987 75.2199C76.0262 75.2083 76.0512 75.1924 76.0721 75.1708C76.0937 75.1491 76.1104 75.1249 76.1212 75.0974C76.1329 75.0691 76.1387 75.0399 76.1387 75.0099C76.1387 74.9799 76.1329 74.9508 76.1212 74.9233C76.1104 74.8949 76.0937 74.8708 76.0721 74.8491L68.6562 67.4333C68.5204 67.2966 68.3554 67.2283 68.1621 67.2283C67.9687 67.2283 67.8046 67.2966 67.6679 67.4333L65.8512 69.2491C65.7146 69.3858 65.6462 69.5508 65.6462 69.7433C65.6462 69.9366 65.7146 70.1016 65.8512 70.2374L66.2996 70.6849C66.3204 70.7066 66.3454 70.7233 66.3729 70.7341C66.4004 70.7458 66.4296 70.7516 66.4596 70.7516C66.4896 70.7516 66.5187 70.7458 66.5471 70.7341C66.5746 70.7233 66.5996 70.7066 66.6204 70.6849C66.6421 70.6641 66.6579 70.6391 66.6696 70.6116C66.6812 70.5833 66.6871 70.5549 66.6871 70.5241C66.6871 70.4941 66.6812 70.4658 66.6696 70.4374C66.6579 70.4099 66.6421 70.3849 66.6204 70.3641Z" fill="#231F1F"/>
<path d="M73.9812 73.8793L68.9829 68.8793C68.7595 68.6576 68.507 68.551 68.417 68.6418L67.0604 69.9993C66.9695 70.0893 67.0754 70.3418 67.297 70.5643L72.297 75.5635L73.9812 73.8793Z" fill="#A286DD"/>
<path d="M70.5987 74.1866L72.137 75.7241C72.1579 75.745 72.1829 75.7616 72.2104 75.7733C72.2379 75.785 72.267 75.79 72.297 75.79C72.3279 75.79 72.3562 75.785 72.3845 75.7733C72.412 75.7616 72.437 75.745 72.4579 75.7241L74.142 74.04C74.1637 74.0183 74.1795 73.9941 74.1912 73.9658C74.2029 73.9383 74.2087 73.9091 74.2087 73.8791C74.2087 73.8491 74.2029 73.82 74.1912 73.7916C74.1795 73.7641 74.1637 73.74 74.142 73.7183L69.1429 68.7183C69.0104 68.5866 68.8754 68.4916 68.7379 68.4333C68.6587 68.4008 68.5845 68.3833 68.5162 68.3825C68.4104 68.38 68.3229 68.4133 68.2554 68.4816L66.8995 69.8383C66.832 69.905 66.7987 69.9916 66.8004 70.0975C66.802 70.1666 66.8187 70.2408 66.852 70.32C66.9095 70.4575 67.0045 70.5925 67.1362 70.7241L69.6095 73.1975C69.6312 73.2191 69.6562 73.235 69.6837 73.2466C69.7112 73.2583 69.7404 73.2641 69.7704 73.2641C69.8004 73.2641 69.8295 73.2583 69.8579 73.2466C69.8854 73.235 69.9104 73.2191 69.9312 73.1975C69.9529 73.1766 69.9687 73.1516 69.9804 73.1241C69.992 73.0958 69.9979 73.0666 69.9979 73.0366C69.9979 73.0066 69.992 72.9775 69.9804 72.95C69.9687 72.9225 69.9529 72.8975 69.9312 72.8758L67.4587 70.4041C67.3687 70.3133 67.3062 70.2266 67.2712 70.1433C67.2604 70.1183 67.2554 70.1008 67.2545 70.09C67.2554 70.1133 67.2437 70.1366 67.2212 70.1591L68.5787 68.8016C68.5554 68.825 68.532 68.8366 68.5087 68.8366C68.5187 68.8366 68.537 68.8416 68.562 68.8525C68.6454 68.8875 68.7312 68.95 68.822 69.04L73.8212 74.04L73.9812 73.8791L73.8212 73.7183L72.137 75.4025L72.297 75.5633L72.4579 75.4025L70.9204 73.865C70.8987 73.8433 70.8745 73.8275 70.8462 73.8158C70.8187 73.8041 70.7895 73.7983 70.7595 73.7983C70.7295 73.7983 70.7004 73.8041 70.6729 73.8158C70.6445 73.8275 70.6204 73.8433 70.5987 73.865C70.577 73.8858 70.5612 73.9108 70.5495 73.9383C70.5379 73.9666 70.532 73.9958 70.532 74.0258C70.532 74.0558 70.5379 74.085 70.5495 74.1125C70.5612 74.14 70.5779 74.165 70.5987 74.1866Z" fill="#231F1F"/>
<path d="M75.551 77.9392L76.3569 77.1326L78.831 79.6076L78.026 80.4134L75.551 77.9392Z" fill="#A286DD"/>
<path d="M75.7121 78.0999L76.5179 77.2933L76.3571 77.1324L76.1971 77.2933L78.6712 79.7683L78.8312 79.6074L78.6712 79.4474L77.8654 80.2524L78.0262 80.4133L78.1871 80.2524L75.7121 77.7783C75.6904 77.7566 75.6662 77.7408 75.6379 77.7291C75.6104 77.7174 75.5812 77.7116 75.5512 77.7116C75.5212 77.7116 75.4921 77.7174 75.4646 77.7291C75.4362 77.7408 75.4121 77.7574 75.3904 77.7783C75.3696 77.7999 75.3529 77.8241 75.3412 77.8524C75.3296 77.8799 75.3237 77.9091 75.3237 77.9391C75.3237 77.9691 75.3296 77.9983 75.3412 78.0258C75.3529 78.0541 75.3696 78.0783 75.3904 78.0999L77.8654 80.5741C77.8871 80.5949 77.9112 80.6116 77.9396 80.6233C77.9671 80.6349 77.9962 80.6399 78.0262 80.6399C78.0562 80.6399 78.0854 80.6349 78.1129 80.6233C78.1412 80.6116 78.1654 80.5949 78.1871 80.5741L78.9921 79.7683C79.0137 79.7474 79.0296 79.7224 79.0412 79.6949C79.0529 79.6666 79.0587 79.6383 79.0587 79.6074C79.0587 79.5774 79.0529 79.5483 79.0412 79.5208C79.0296 79.4933 79.0137 79.4683 78.9921 79.4474L76.5179 76.9724C76.4971 76.9508 76.4721 76.9341 76.4446 76.9233C76.4162 76.9116 76.3879 76.9058 76.3571 76.9058C76.3271 76.9058 76.2987 76.9116 76.2704 76.9233C76.2429 76.9341 76.2179 76.9508 76.1971 76.9724L75.3904 77.7783C75.3696 77.7999 75.3529 77.8241 75.3412 77.8524C75.3296 77.8799 75.3237 77.9091 75.3237 77.9391C75.3237 77.9691 75.3296 77.9983 75.3412 78.0258C75.3529 78.0541 75.3696 78.0783 75.3904 78.0999C75.4121 78.1208 75.4362 78.1374 75.4646 78.1491C75.4921 78.1608 75.5212 78.1666 75.5512 78.1666C75.5812 78.1666 75.6104 78.1608 75.6379 78.1491C75.6662 78.1374 75.6904 78.1208 75.7121 78.0999Z" fill="#231F1F"/>
<path d="M77.2302 80.8268L79.2452 78.8118C79.361 78.6943 79.5502 78.6943 79.6669 78.8118L80.0427 79.1876C80.1594 79.3043 80.1594 79.4934 80.0427 79.6101L78.0277 81.6251C77.9119 81.7409 77.7227 81.7409 77.606 81.6251L77.2302 81.2484C77.1127 81.1318 77.1127 80.9434 77.2302 80.8268Z" fill="#A286DD"/>
<path d="M77.3904 80.9874L79.4054 78.9724C79.4196 78.9582 79.4362 78.9507 79.4562 78.9507C79.4754 78.9507 79.4921 78.9574 79.5054 78.9716L79.8821 79.3482C79.8962 79.3624 79.9029 79.3791 79.9029 79.3991C79.9029 79.4182 79.8962 79.4349 79.8821 79.4491L77.8671 81.4641C77.8537 81.4774 77.8371 81.4849 77.8171 81.4849C77.7979 81.4849 77.7804 81.4774 77.7671 81.4641L77.3904 81.0874C77.3762 81.0732 77.3696 81.0566 77.3696 81.0374C77.3696 81.0182 77.3762 81.0016 77.3904 80.9882C77.4112 80.9666 77.4279 80.9424 77.4396 80.9141C77.4512 80.8866 77.4571 80.8574 77.4571 80.8274C77.4571 80.7974 77.4521 80.7682 77.4404 80.7407C77.4287 80.7124 77.4129 80.6882 77.3912 80.6666C77.3704 80.6449 77.3454 80.6282 77.3179 80.6174C77.2904 80.6057 77.2612 80.5991 77.2312 80.5991C77.2004 80.5991 77.1721 80.6049 77.1437 80.6166C77.1162 80.6274 77.0912 80.6441 77.0696 80.6649C76.9662 80.7682 76.9146 80.8916 76.9146 81.0374C76.9146 81.1832 76.9662 81.3066 77.0696 81.4091L77.4454 81.7849C77.5479 81.8882 77.6721 81.9391 77.8171 81.9391C77.9621 81.9391 78.0862 81.8882 78.1887 81.7849L80.2037 79.7699C80.3062 79.6674 80.3579 79.5441 80.3579 79.3991C80.3579 79.2532 80.3062 79.1299 80.2037 79.0274L79.8279 78.6516C79.7254 78.5482 79.6012 78.4966 79.4562 78.4966C79.3104 78.4966 79.1862 78.5482 79.0846 78.6507L77.0696 80.6657C77.0479 80.6874 77.0312 80.7116 77.0204 80.7399C77.0087 80.7674 77.0029 80.7966 77.0029 80.8266C77.0029 80.8566 77.0087 80.8857 77.0204 80.9132C77.0312 80.9416 77.0479 80.9657 77.0696 80.9874C77.0904 81.0082 77.1154 81.0249 77.1429 81.0366C77.1712 81.0482 77.1996 81.0541 77.2304 81.0541C77.2604 81.0541 77.2887 81.0482 77.3171 81.0366C77.3446 81.0249 77.3696 81.0082 77.3904 80.9874Z" fill="#231F1F"/>
<defs>
<filter id="filter0_d_124_174" x="0" y="0" width="108" height="108" filterUnits="userSpaceOnUse" color-interpolation-filters="sRGB">
<feFlood flood-opacity="0" result="BackgroundImageFix"/>
<feColorMatrix in="SourceAlpha" type="matrix" values="0 0 0 0 0 0 0 0 0 0 0 0 0 0 0 0 0 0 127 0" result="hardAlpha"/>
<feOffset dy="4"/>
<feGaussianBlur stdDeviation="2"/>
<feComposite in2="hardAlpha" operator="out"/>
<feColorMatrix type="matrix" values="0 0 0 0 0.85098 0 0 0 0 0.85098 0 0 0 0 0.85098 0 0 0 0.75 0"/>
<feBlend mode="normal" in2="BackgroundImageFix" result="effect1_dropShadow_124_174"/>
<feBlend mode="normal" in="SourceGraphic" in2="effect1_dropShadow_124_174" result="shape"/>
</filter>
</defs>
</svg>
